<svg xmlns="http://www.w3.org/2000/svg" viewBox="1356.9 734.8 424.4 73.7" role="img" aria-label="نبتون"><path fill-rule="nonzero" fill="#FFFFFF" fill-opacity="1" d="M 1370.289062 765.300781 L 1369.953125 765.300781 C 1368.878906 765.300781 1367.964844 765.101562 1367.214844 764.691406 C 1366.464844 764.285156 1365.894531 763.734375 1365.507812 763.035156 C 1365.121094 762.335938 1364.929688 761.527344 1364.929688 760.613281 L 1364.929688 747.242188 C 1364.929688 746.898438 1365.027344 746.621094 1365.21875 746.40625 C 1365.410156 746.195312 1365.640625 746.085938 1365.902344 746.085938 C 1366.1875 746.085938 1366.414062 746.195312 1366.589844 746.40625 C 1366.761719 746.621094 1366.847656 746.898438 1366.847656 747.242188 L 1366.847656 760.519531 C 1366.847656 761.457031 1367.117188 762.175781 1367.65625 762.683594 C 1368.191406 763.191406 1369.011719 763.445312 1370.105469 763.445312 L 1370.289062 763.445312 Z M 1370.289062 765.300781 "/><path fill-rule="nonzero" fill="#FFFFFF" fill-opacity="1" d="M 1376.53125 765.300781 L 1369.921875 765.300781 L 1369.921875 763.445312 L 1376.53125 763.445312 Z M 1376.53125 765.300781 "/><path fill-rule="nonzero" fill="#FFFFFF" fill-opacity="1" d="M 1382.769531 765.300781 L 1376.160156 765.300781 L 1376.160156 763.445312 L 1382.769531 763.445312 Z M 1382.769531 765.300781 "/><path fill-rule="nonzero" fill="#FFFFFF" fill-opacity="1" d="M 1389.011719 765.300781 L 1382.402344 765.300781 L 1382.402344 763.445312 L 1389.011719 763.445312 Z M 1389.011719 765.300781 "/><path fill-rule="nonzero" fill="#FFFFFF" fill-opacity="1" d="M 1395.261719 765.300781 L 1388.652344 765.300781 L 1388.652344 763.445312 L 1395.261719 763.445312 Z M 1395.261719 765.300781 "/><path fill-rule="nonzero" fill="#FFFFFF" fill-opacity="1" d="M 1401.5 765.300781 L 1394.890625 765.300781 L 1394.890625 763.445312 L 1401.5 763.445312 Z M 1401.5 765.300781 "/><path fill-rule="nonzero" fill="#FFFFFF" fill-opacity="1" d="M 1407.738281 765.300781 L 1401.132812 765.300781 L 1401.132812 763.445312 L 1407.738281 763.445312 Z M 1407.738281 765.300781 "/><path fill-rule="nonzero" fill="#FFFFFF" fill-opacity="1" d="M 1413.988281 765.300781 L 1407.382812 765.300781 L 1407.382812 763.445312 L 1413.988281 763.445312 Z M 1413.988281 765.300781 "/><path fill-rule="nonzero" fill="#FFFFFF" fill-opacity="1" d="M 1420.230469 765.300781 L 1413.621094 765.300781 L 1413.621094 763.445312 L 1420.230469 763.445312 Z M 1420.230469 765.300781 "/><path fill-rule="nonzero" fill="#FFFFFF" fill-opacity="1" d="M 1426.46875 765.300781 L 1419.863281 765.300781 L 1419.863281 763.445312 L 1426.46875 763.445312 Z M 1426.46875 765.300781 "/><path fill-rule="nonzero" fill="#FFFFFF" fill-opacity="1" d="M 1432.710938 765.300781 L 1426.101562 765.300781 L 1426.101562 763.445312 L 1432.710938 763.445312 Z M 1432.710938 765.300781 "/><path fill-rule="nonzero" fill="#FFFFFF" fill-opacity="1" d="M 1438.960938 765.300781 L 1432.351562 765.300781 L 1432.351562 763.445312 L 1438.960938 763.445312 Z M 1438.960938 765.300781 "/><path fill-rule="nonzero" fill="#FFFFFF" fill-opacity="1" d="M 1445.199219 765.300781 L 1438.59375 765.300781 L 1438.59375 763.445312 L 1445.199219 763.445312 Z M 1445.199219 765.300781 "/><path fill-rule="nonzero" fill="#FFFFFF" fill-opacity="1" d="M 1451.441406 765.300781 L 1444.832031 765.300781 L 1444.832031 763.445312 L 1451.441406 763.445312 Z M 1451.441406 765.300781 "/><path fill-rule="nonzero" fill="#FFFFFF" fill-opacity="1" d="M 1457.679688 765.300781 L 1451.070312 765.300781 L 1451.070312 763.445312 L 1457.679688 763.445312 Z M 1457.679688 765.300781 "/><path fill-rule="nonzero" fill="#FFFFFF" fill-opacity="1" d="M 1461.789062 767.585938 C 1462.074219 767.585938 1462.292969 767.691406 1462.445312 767.90625 C 1462.597656 768.121094 1462.683594 768.417969 1462.703125 768.804688 L 1462.703125 768.988281 C 1462.703125 769.371094 1462.621094 769.671875 1462.460938 769.886719 C 1462.296875 770.097656 1462.074219 770.207031 1461.789062 770.207031 C 1461.527344 770.207031 1461.3125 770.097656 1461.152344 769.886719 C 1460.988281 769.671875 1460.90625 769.371094 1460.90625 768.988281 L 1460.90625 768.804688 C 1460.90625 768.417969 1460.988281 768.121094 1461.152344 767.90625 C 1461.3125 767.691406 1461.527344 767.585938 1461.789062 767.585938 M 1458.746094 767.585938 C 1459.027344 767.585938 1459.253906 767.691406 1459.414062 767.90625 C 1459.578125 768.121094 1459.65625 768.417969 1459.65625 768.804688 L 1459.65625 768.988281 C 1459.65625 769.371094 1459.578125 769.671875 1459.414062 769.886719 C 1459.253906 770.097656 1459.027344 770.207031 1458.746094 770.207031 C 1458.480469 770.207031 1458.273438 770.097656 1458.121094 769.886719 C 1457.96875 769.671875 1457.882812 769.371094 1457.859375 768.988281 L 1457.859375 768.804688 C 1457.882812 768.417969 1457.96875 768.121094 1458.121094 767.90625 C 1458.273438 767.691406 1458.480469 767.585938 1458.746094 767.585938 M 1466.113281 763.445312 L 1466.113281 765.300781 L 1465.746094 765.300781 C 1464.8125 765.300781 1464.007812 765.140625 1463.328125 764.816406 C 1462.648438 764.492188 1462.105469 764.042969 1461.699219 763.476562 C 1461.3125 764.042969 1460.78125 764.492188 1460.097656 764.816406 C 1459.421875 765.140625 1458.613281 765.300781 1457.679688 765.300781 L 1457.3125 765.300781 L 1457.3125 763.445312 L 1457.496094 763.445312 C 1458.59375 763.445312 1459.410156 763.191406 1459.949219 762.683594 C 1460.484375 762.175781 1460.753906 761.457031 1460.753906 760.523438 L 1460.753906 754.644531 C 1460.753906 754.300781 1460.847656 754.019531 1461.027344 753.808594 C 1461.210938 753.59375 1461.433594 753.488281 1461.699219 753.488281 C 1461.984375 753.488281 1462.222656 753.59375 1462.414062 753.808594 C 1462.605469 754.019531 1462.703125 754.300781 1462.703125 754.644531 L 1462.703125 760.523438 C 1462.703125 761.457031 1462.96875 762.175781 1463.496094 762.683594 C 1464.023438 763.191406 1464.835938 763.445312 1465.933594 763.445312 Z M 1466.113281 763.445312 "/><path fill-rule="nonzero" fill="#FFFFFF" fill-opacity="1" d="M 1472.238281 770.265625 C 1471.914062 770.265625 1471.667969 770.144531 1471.492188 769.902344 C 1471.320312 769.65625 1471.222656 769.34375 1471.203125 768.957031 L 1471.203125 768.835938 C 1471.222656 768.429688 1471.320312 768.105469 1471.492188 767.859375 C 1471.667969 767.617188 1471.914062 767.496094 1472.238281 767.496094 C 1472.542969 767.496094 1472.789062 767.617188 1472.972656 767.859375 C 1473.152344 768.105469 1473.246094 768.429688 1473.246094 768.835938 L 1473.246094 768.957031 C 1473.246094 769.34375 1473.152344 769.65625 1472.972656 769.902344 C 1472.789062 770.144531 1472.542969 770.265625 1472.238281 770.265625 M 1465.753906 765.300781 L 1465.753906 763.445312 L 1473.882812 763.445312 C 1474.433594 763.445312 1474.925781 763.335938 1475.363281 763.109375 C 1475.796875 762.886719 1476.144531 762.550781 1476.398438 762.105469 C 1476.652344 761.660156 1476.777344 761.121094 1476.777344 760.488281 L 1476.777344 758.511719 C 1476.777344 757.839844 1476.652344 757.289062 1476.398438 756.851562 C 1476.144531 756.414062 1475.796875 756.085938 1475.363281 755.863281 C 1474.925781 755.636719 1474.433594 755.527344 1473.882812 755.527344 L 1469.925781 755.527344 C 1469.578125 755.527344 1469.300781 755.4375 1469.089844 755.253906 C 1468.875 755.070312 1468.769531 754.847656 1468.769531 754.582031 C 1468.769531 754.320312 1468.875 754.101562 1469.089844 753.929688 C 1469.300781 753.757812 1469.578125 753.667969 1469.925781 753.667969 L 1473.945312 753.667969 C 1474.898438 753.667969 1475.738281 753.871094 1476.457031 754.277344 C 1477.179688 754.683594 1477.738281 755.242188 1478.132812 755.953125 C 1478.527344 756.664062 1478.726562 757.488281 1478.726562 758.421875 L 1478.726562 760.550781 C 1478.726562 761.484375 1478.527344 762.308594 1478.132812 763.019531 C 1477.738281 763.730469 1477.179688 764.285156 1476.457031 764.691406 C 1475.738281 765.101562 1474.898438 765.300781 1473.945312 765.300781 Z M 1465.753906 765.300781 "/><path fill-rule="nonzero" fill="#FFFFFF" fill-opacity="1" d="M 1488.988281 763.445312 L 1488.988281 758.269531 C 1488.988281 757.558594 1488.859375 756.988281 1488.59375 756.5625 C 1488.328125 756.136719 1488.011719 755.828125 1487.632812 755.632812 C 1487.257812 755.441406 1486.878906 755.34375 1486.492188 755.34375 C 1486.105469 755.34375 1485.714844 755.441406 1485.320312 755.632812 C 1484.925781 755.828125 1484.597656 756.136719 1484.347656 756.5625 C 1484.09375 756.988281 1483.964844 757.558594 1483.964844 758.269531 L 1483.964844 760.550781 C 1483.964844 761.261719 1484.09375 761.832031 1484.347656 762.257812 C 1484.597656 762.683594 1484.925781 762.988281 1485.320312 763.171875 C 1485.714844 763.351562 1486.105469 763.445312 1486.492188 763.445312 Z M 1494.378906 765.300781 L 1490.9375 765.300781 L 1490.9375 766.0625 C 1490.898438 766.773438 1490.699219 767.484375 1490.34375 768.195312 C 1489.988281 768.90625 1489.4375 769.488281 1488.6875 769.945312 C 1487.933594 770.402344 1486.949219 770.632812 1485.730469 770.632812 L 1483.175781 770.632812 C 1482.828125 770.632812 1482.542969 770.546875 1482.320312 770.371094 C 1482.097656 770.199219 1481.984375 769.980469 1481.984375 769.71875 C 1481.984375 769.433594 1482.097656 769.203125 1482.320312 769.03125 C 1482.542969 768.859375 1482.828125 768.773438 1483.175781 768.773438 L 1485.550781 768.773438 C 1486.257812 768.773438 1486.835938 768.675781 1487.285156 768.484375 C 1487.730469 768.292969 1488.066406 768.042969 1488.289062 767.738281 C 1488.511719 767.433594 1488.671875 767.128906 1488.761719 766.824219 C 1488.851562 766.519531 1488.90625 766.265625 1488.929688 766.0625 L 1488.988281 765.300781 L 1486.460938 765.300781 C 1485.753906 765.300781 1485.050781 765.136719 1484.359375 764.800781 C 1483.671875 764.464844 1483.101562 763.953125 1482.65625 763.261719 C 1482.210938 762.570312 1481.984375 761.699219 1481.984375 760.644531 L 1481.984375 758.144531 C 1481.984375 757.070312 1482.210938 756.191406 1482.65625 755.511719 C 1483.101562 754.832031 1483.671875 754.324219 1484.359375 753.988281 C 1485.050781 753.65625 1485.753906 753.488281 1486.460938 753.488281 C 1487.191406 753.488281 1487.898438 753.65625 1488.578125 753.988281 C 1489.257812 754.324219 1489.824219 754.832031 1490.269531 755.511719 C 1490.714844 756.191406 1490.9375 757.070312 1490.9375 758.144531 L 1490.9375 763.445312 L 1494.378906 763.445312 Z M 1494.378906 765.300781 "/><path fill-rule="nonzero" fill="#FFFFFF" fill-opacity="1" d="M 1494.039062 765.300781 L 1494.039062 763.445312 L 1494.222656 763.445312 C 1495.320312 763.445312 1496.136719 763.191406 1496.675781 762.683594 C 1497.210938 762.175781 1497.480469 761.457031 1497.480469 760.519531 L 1497.480469 747.242188 C 1497.480469 746.898438 1497.578125 746.621094 1497.769531 746.40625 C 1497.964844 746.195312 1498.191406 746.085938 1498.453125 746.085938 C 1498.738281 746.085938 1498.96875 746.195312 1499.140625 746.40625 C 1499.3125 746.621094 1499.398438 746.898438 1499.398438 747.242188 L 1499.398438 760.613281 C 1499.398438 761.527344 1499.207031 762.335938 1498.820312 763.035156 C 1498.433594 763.734375 1497.871094 764.285156 1497.132812 764.691406 C 1496.390625 765.101562 1495.480469 765.300781 1494.40625 765.300781 Z M 1494.039062 765.300781 "/><path fill-rule="nonzero" fill="#FFFFFF" fill-opacity="1" d="M 1509.699219 763.445312 L 1509.699219 758.269531 C 1509.699219 757.558594 1509.566406 756.988281 1509.304688 756.5625 C 1509.039062 756.136719 1508.71875 755.828125 1508.34375 755.632812 C 1507.96875 755.441406 1507.589844 755.34375 1507.203125 755.34375 C 1506.816406 755.34375 1506.425781 755.441406 1506.03125 755.632812 C 1505.632812 755.828125 1505.308594 756.136719 1505.054688 756.5625 C 1504.800781 756.988281 1504.675781 757.558594 1504.675781 758.269531 L 1504.675781 760.550781 C 1504.675781 761.261719 1504.800781 761.832031 1505.054688 762.257812 C 1505.308594 762.683594 1505.632812 762.988281 1506.03125 763.171875 C 1506.425781 763.351562 1506.816406 763.445312 1507.203125 763.445312 Z M 1515.089844 765.300781 L 1511.648438 765.300781 L 1511.648438 766.0625 C 1511.609375 766.773438 1511.410156 767.484375 1511.054688 768.195312 C 1510.699219 768.90625 1510.144531 769.488281 1509.394531 769.945312 C 1508.644531 770.402344 1507.660156 770.632812 1506.441406 770.632812 L 1503.882812 770.632812 C 1503.539062 770.632812 1503.253906 770.546875 1503.03125 770.371094 C 1502.808594 770.199219 1502.695312 769.980469 1502.695312 769.71875 C 1502.695312 769.433594 1502.808594 769.203125 1503.03125 769.03125 C 1503.253906 768.859375 1503.539062 768.773438 1503.882812 768.773438 L 1506.257812 768.773438 C 1506.96875 768.773438 1507.546875 768.675781 1507.996094 768.484375 C 1508.441406 768.292969 1508.777344 768.042969 1509 767.738281 C 1509.222656 767.433594 1509.378906 767.128906 1509.472656 766.824219 C 1509.5625 766.519531 1509.617188 766.265625 1509.640625 766.0625 L 1509.699219 765.300781 L 1507.171875 765.300781 C 1506.460938 765.300781 1505.761719 765.136719 1505.070312 764.800781 C 1504.382812 764.464844 1503.8125 763.953125 1503.367188 763.261719 C 1502.917969 762.570312 1502.695312 761.699219 1502.695312 760.644531 L 1502.695312 758.144531 C 1502.695312 757.070312 1502.917969 756.191406 1503.367188 755.511719 C 1503.8125 754.832031 1504.382812 754.324219 1505.070312 753.988281 C 1505.761719 753.65625 1506.460938 753.488281 1507.171875 753.488281 C 1507.902344 753.488281 1508.609375 753.65625 1509.289062 753.988281 C 1509.96875 754.324219 1510.53125 754.832031 1510.980469 755.511719 C 1511.425781 756.191406 1511.648438 757.070312 1511.648438 758.144531 L 1511.648438 763.445312 L 1515.089844 763.445312 Z M 1515.089844 765.300781 "/><path fill-rule="nonzero" fill="#FFFFFF" fill-opacity="1" d="M 1519.171875 751.265625 C 1518.867188 751.265625 1518.621094 751.136719 1518.4375 750.882812 C 1518.257812 750.628906 1518.164062 750.320312 1518.164062 749.953125 L 1518.164062 749.804688 C 1518.164062 749.398438 1518.257812 749.070312 1518.4375 748.828125 C 1518.621094 748.585938 1518.867188 748.460938 1519.171875 748.460938 C 1519.472656 748.460938 1519.722656 748.585938 1519.914062 748.828125 C 1520.109375 749.070312 1520.203125 749.398438 1520.203125 749.804688 L 1520.203125 749.953125 C 1520.203125 750.320312 1520.109375 750.628906 1519.914062 750.882812 C 1519.722656 751.136719 1519.472656 751.265625 1519.171875 751.265625 M 1523.554688 763.445312 L 1523.554688 765.300781 L 1523.1875 765.300781 C 1522.257812 765.300781 1521.449219 765.144531 1520.769531 764.828125 C 1520.089844 764.515625 1519.554688 764.105469 1519.171875 763.597656 C 1518.785156 764.105469 1518.246094 764.515625 1517.554688 764.828125 C 1516.867188 765.144531 1516.054688 765.300781 1515.121094 765.300781 L 1514.753906 765.300781 L 1514.753906 763.445312 L 1514.9375 763.445312 C 1516.03125 763.445312 1516.851562 763.191406 1517.390625 762.683594 C 1517.925781 762.175781 1518.195312 761.457031 1518.195312 760.519531 L 1518.195312 754.644531 C 1518.195312 754.300781 1518.285156 754.019531 1518.46875 753.808594 C 1518.652344 753.59375 1518.886719 753.488281 1519.171875 753.488281 C 1519.453125 753.488281 1519.683594 753.59375 1519.855469 753.808594 C 1520.027344 754.019531 1520.113281 754.300781 1520.113281 754.644531 L 1520.113281 760.519531 C 1520.113281 761.457031 1520.382812 762.175781 1520.921875 762.683594 C 1521.460938 763.191406 1522.277344 763.445312 1523.371094 763.445312 Z M 1523.554688 763.445312 "/><path fill-rule="nonzero" fill="#FFFFFF" fill-opacity="1" d="M 1542.53125 763.445312 L 1542.53125 765.300781 L 1542.164062 765.300781 C 1541.230469 765.300781 1540.417969 765.140625 1539.726562 764.816406 C 1539.039062 764.488281 1538.488281 764.035156 1538.085938 763.445312 C 1537.65625 764.074219 1537.109375 764.539062 1536.4375 764.847656 C 1535.769531 765.148438 1535.058594 765.300781 1534.308594 765.300781 L 1523.191406 765.300781 L 1523.191406 763.445312 L 1534.246094 763.445312 C 1534.796875 763.445312 1535.285156 763.335938 1535.722656 763.109375 C 1536.160156 762.886719 1536.503906 762.550781 1536.757812 762.105469 C 1537.011719 761.660156 1537.140625 761.121094 1537.140625 760.492188 L 1537.140625 758.511719 C 1537.140625 757.839844 1537.011719 757.289062 1536.757812 756.851562 C 1536.503906 756.414062 1536.160156 756.085938 1535.722656 755.863281 C 1535.285156 755.640625 1534.796875 755.527344 1534.246094 755.527344 L 1527.609375 755.527344 C 1527.222656 755.527344 1526.894531 755.40625 1526.617188 755.160156 C 1526.34375 754.917969 1526.207031 754.601562 1526.207031 754.21875 L 1526.207031 753.730469 C 1526.207031 753.507812 1526.253906 753.226562 1526.34375 752.894531 C 1526.4375 752.558594 1526.675781 752.148438 1527.058594 751.660156 L 1531.203125 746.574219 C 1531.507812 746.25 1531.8125 746.085938 1532.113281 746.085938 C 1532.398438 746.085938 1532.632812 746.179688 1532.816406 746.363281 C 1532.996094 746.542969 1533.089844 746.777344 1533.089844 747.0625 C 1533.089844 747.285156 1532.96875 747.550781 1532.722656 747.851562 L 1529.007812 752.421875 C 1528.785156 752.683594 1528.632812 752.898438 1528.550781 753.0625 C 1528.472656 753.222656 1528.421875 753.363281 1528.398438 753.488281 C 1528.378906 753.507812 1528.390625 753.542969 1528.429688 753.59375 C 1528.472656 753.644531 1528.542969 753.667969 1528.644531 753.667969 L 1534.308594 753.667969 C 1535.261719 753.667969 1536.097656 753.871094 1536.820312 754.277344 C 1537.539062 754.683594 1538.097656 755.242188 1538.496094 755.953125 C 1538.890625 756.664062 1539.089844 757.488281 1539.089844 758.421875 L 1539.089844 760.519531 C 1539.089844 761.457031 1539.359375 762.175781 1539.894531 762.683594 C 1540.433594 763.191406 1541.25 763.445312 1542.347656 763.445312 Z M 1542.53125 763.445312 "/><path fill-rule="nonzero" fill="#FFFFFF" fill-opacity="1" d="M 1548.070312 751.234375 C 1547.804688 751.234375 1547.59375 751.128906 1547.429688 750.914062 C 1547.265625 750.699219 1547.1875 750.402344 1547.1875 750.015625 L 1547.1875 749.863281 C 1547.1875 749.457031 1547.265625 749.148438 1547.429688 748.933594 C 1547.59375 748.722656 1547.804688 748.613281 1548.070312 748.613281 C 1548.332031 748.613281 1548.546875 748.722656 1548.710938 748.933594 C 1548.871094 749.148438 1548.953125 749.457031 1548.953125 749.863281 L 1548.953125 750.015625 C 1548.953125 750.402344 1548.871094 750.699219 1548.710938 750.914062 C 1548.546875 751.128906 1548.332031 751.234375 1548.070312 751.234375 M 1545.054688 751.234375 C 1544.769531 751.234375 1544.546875 751.128906 1544.386719 750.914062 C 1544.222656 750.699219 1544.140625 750.402344 1544.140625 750.015625 L 1544.140625 749.863281 C 1544.140625 749.457031 1544.222656 749.148438 1544.386719 748.933594 C 1544.546875 748.722656 1544.769531 748.613281 1545.054688 748.613281 C 1545.320312 748.613281 1545.53125 748.722656 1545.695312 748.933594 C 1545.855469 749.148438 1545.9375 749.457031 1545.9375 749.863281 L 1545.9375 750.015625 C 1545.9375 750.402344 1545.855469 750.699219 1545.695312 750.914062 C 1545.53125 751.128906 1545.320312 751.234375 1545.054688 751.234375 M 1550.960938 763.445312 L 1550.960938 765.300781 L 1550.597656 765.300781 C 1549.664062 765.300781 1548.855469 765.140625 1548.175781 764.816406 C 1547.496094 764.488281 1546.964844 764.042969 1546.578125 763.476562 C 1546.191406 764.042969 1545.652344 764.488281 1544.964844 764.816406 C 1544.273438 765.140625 1543.460938 765.300781 1542.527344 765.300781 L 1542.160156 765.300781 L 1542.160156 763.445312 L 1542.34375 763.445312 C 1543.441406 763.445312 1544.257812 763.191406 1544.796875 762.683594 C 1545.335938 762.175781 1545.601562 761.457031 1545.601562 760.519531 L 1545.601562 754.644531 C 1545.601562 754.300781 1545.695312 754.019531 1545.878906 753.804688 C 1546.058594 753.59375 1546.292969 753.488281 1546.578125 753.488281 C 1546.863281 753.488281 1547.089844 753.59375 1547.261719 753.804688 C 1547.4375 754.019531 1547.519531 754.300781 1547.519531 754.644531 L 1547.519531 760.519531 C 1547.519531 761.457031 1547.789062 762.175781 1548.328125 762.683594 C 1548.867188 763.191406 1549.683594 763.445312 1550.78125 763.445312 Z M 1550.960938 763.445312 "/><path fill-rule="nonzero" fill="#FFFFFF" fill-opacity="1" d="M 1550.589844 765.300781 L 1550.589844 763.445312 L 1550.773438 763.445312 C 1551.867188 763.445312 1552.6875 763.191406 1553.222656 762.683594 C 1553.761719 762.175781 1554.03125 761.457031 1554.03125 760.519531 L 1554.03125 747.242188 C 1554.03125 746.898438 1554.128906 746.621094 1554.320312 746.40625 C 1554.511719 746.195312 1554.742188 746.085938 1555.003906 746.085938 C 1555.289062 746.085938 1555.519531 746.195312 1555.691406 746.40625 C 1555.863281 746.621094 1555.949219 746.898438 1555.949219 747.242188 L 1555.949219 760.613281 C 1555.949219 761.527344 1555.757812 762.335938 1555.371094 763.035156 C 1554.984375 763.734375 1554.421875 764.285156 1553.679688 764.691406 C 1552.941406 765.101562 1552.03125 765.300781 1550.953125 765.300781 Z M 1550.589844 765.300781 "/><path fill-rule="nonzero" fill="#FFFFFF" fill-opacity="1" d="M 1370.859375 781.132812 C 1370.597656 781.132812 1370.382812 781.023438 1370.222656 780.8125 C 1370.058594 780.597656 1369.976562 780.300781 1369.976562 779.914062 L 1369.976562 779.761719 C 1369.976562 779.355469 1370.058594 779.046875 1370.222656 778.832031 C 1370.382812 778.617188 1370.597656 778.511719 1370.859375 778.511719 C 1371.144531 778.511719 1371.367188 778.617188 1371.53125 778.832031 C 1371.691406 779.046875 1371.773438 779.355469 1371.773438 779.761719 L 1371.773438 779.914062 C 1371.753906 780.300781 1371.667969 780.597656 1371.515625 780.8125 C 1371.363281 781.023438 1371.144531 781.132812 1370.859375 781.132812 M 1367.816406 781.132812 C 1367.550781 781.132812 1367.335938 781.023438 1367.175781 780.8125 C 1367.011719 780.597656 1366.929688 780.300781 1366.929688 779.914062 L 1366.929688 779.761719 C 1366.929688 779.355469 1367.011719 779.046875 1367.175781 778.832031 C 1367.335938 778.617188 1367.550781 778.511719 1367.816406 778.511719 C 1368.097656 778.511719 1368.320312 778.617188 1368.484375 778.832031 C 1368.644531 779.046875 1368.726562 779.355469 1368.726562 779.761719 L 1368.726562 779.914062 C 1368.707031 780.300781 1368.621094 780.597656 1368.46875 780.8125 C 1368.316406 781.023438 1368.097656 781.132812 1367.816406 781.132812 M 1371.863281 790.539062 L 1371.863281 788.164062 C 1371.863281 787.457031 1371.734375 786.886719 1371.46875 786.460938 C 1371.203125 786.035156 1370.878906 785.726562 1370.496094 785.53125 C 1370.109375 785.339844 1369.722656 785.242188 1369.335938 785.242188 C 1368.953125 785.242188 1368.5625 785.339844 1368.164062 785.53125 C 1367.769531 785.726562 1367.441406 786.035156 1367.191406 786.460938 C 1366.9375 786.886719 1366.808594 787.457031 1366.808594 788.164062 L 1366.808594 790.539062 C 1366.808594 791.25 1366.941406 791.820312 1367.203125 792.246094 C 1367.46875 792.671875 1367.800781 792.976562 1368.195312 793.160156 C 1368.589844 793.34375 1368.980469 793.433594 1369.367188 793.433594 C 1369.753906 793.433594 1370.140625 793.34375 1370.523438 793.160156 C 1370.910156 792.976562 1371.230469 792.671875 1371.484375 792.246094 C 1371.738281 791.820312 1371.863281 791.25 1371.863281 790.539062 M 1377.253906 793.34375 L 1377.253906 795.199219 L 1376.890625 795.199219 C 1375.976562 795.199219 1375.183594 795.054688 1374.515625 794.757812 C 1373.84375 794.464844 1373.304688 794.09375 1372.898438 793.648438 C 1372.515625 794.15625 1371.996094 794.554688 1371.347656 794.851562 C 1370.695312 795.144531 1370.027344 795.292969 1369.335938 795.292969 C 1368.605469 795.292969 1367.902344 795.125 1367.222656 794.789062 C 1366.539062 794.453125 1365.976562 793.941406 1365.53125 793.25 C 1365.085938 792.5625 1364.859375 791.6875 1364.859375 790.632812 L 1364.859375 788.074219 C 1364.859375 787 1365.085938 786.113281 1365.53125 785.425781 C 1365.976562 784.734375 1366.539062 784.222656 1367.222656 783.886719 C 1367.902344 783.554688 1368.605469 783.386719 1369.335938 783.386719 C 1370.066406 783.386719 1370.773438 783.554688 1371.453125 783.886719 C 1372.132812 784.222656 1372.695312 784.734375 1373.144531 785.425781 C 1373.589844 786.113281 1373.8125 787 1373.8125 788.074219 L 1373.8125 790.417969 C 1373.8125 791.351562 1374.082031 792.074219 1374.621094 792.582031 C 1375.15625 793.089844 1375.964844 793.34375 1377.042969 793.34375 Z M 1377.253906 793.34375 "/><path fill-rule="nonzero" fill="#FFFFFF" fill-opacity="1" d="M 1383.5 795.199219 L 1376.890625 795.199219 L 1376.890625 793.34375 L 1383.5 793.34375 Z M 1383.5 795.199219 "/><path fill-rule="nonzero" fill="#FFFFFF" fill-opacity="1" d="M 1389.75 795.199219 L 1383.140625 795.199219 L 1383.140625 793.34375 L 1389.75 793.34375 Z M 1389.75 795.199219 "/><path fill-rule="nonzero" fill="#FFFFFF" fill-opacity="1" d="M 1395.988281 795.199219 L 1389.382812 795.199219 L 1389.382812 793.34375 L 1395.988281 793.34375 Z M 1395.988281 795.199219 "/><path fill-rule="nonzero" fill="#FFFFFF" fill-opacity="1" d="M 1402.230469 795.199219 L 1395.621094 795.199219 L 1395.621094 793.34375 L 1402.230469 793.34375 Z M 1402.230469 795.199219 "/><path fill-rule="nonzero" fill="#FFFFFF" fill-opacity="1" d="M 1408.46875 795.199219 L 1401.863281 795.199219 L 1401.863281 793.34375 L 1408.46875 793.34375 Z M 1408.46875 795.199219 "/><path fill-rule="nonzero" fill="#FFFFFF" fill-opacity="1" d="M 1414.71875 795.199219 L 1408.113281 795.199219 L 1408.113281 793.34375 L 1414.71875 793.34375 Z M 1414.71875 795.199219 "/><path fill-rule="nonzero" fill="#FFFFFF" fill-opacity="1" d="M 1418.828125 797.484375 C 1419.113281 797.484375 1419.332031 797.589844 1419.484375 797.804688 C 1419.636719 798.015625 1419.722656 798.316406 1419.742188 798.703125 L 1419.742188 798.886719 C 1419.742188 799.269531 1419.664062 799.570312 1419.5 799.78125 C 1419.335938 799.996094 1419.113281 800.105469 1418.828125 800.105469 C 1418.566406 800.105469 1418.351562 799.996094 1418.191406 799.78125 C 1418.027344 799.570312 1417.945312 799.269531 1417.945312 798.886719 L 1417.945312 798.703125 C 1417.945312 798.316406 1418.027344 798.015625 1418.191406 797.804688 C 1418.351562 797.589844 1418.566406 797.484375 1418.828125 797.484375 M 1415.785156 797.484375 C 1416.070312 797.484375 1416.292969 797.589844 1416.453125 797.804688 C 1416.617188 798.015625 1416.699219 798.316406 1416.699219 798.703125 L 1416.699219 798.886719 C 1416.699219 799.269531 1416.617188 799.570312 1416.453125 799.78125 C 1416.292969 799.996094 1416.070312 800.105469 1415.785156 800.105469 C 1415.519531 800.105469 1415.3125 799.996094 1415.160156 799.78125 C 1415.007812 799.570312 1414.921875 799.269531 1414.902344 798.886719 L 1414.902344 798.703125 C 1414.921875 798.316406 1415.007812 798.015625 1415.160156 797.804688 C 1415.3125 797.589844 1415.519531 797.484375 1415.785156 797.484375 M 1423.152344 793.34375 L 1423.152344 795.199219 L 1422.789062 795.199219 C 1421.855469 795.199219 1421.046875 795.039062 1420.367188 794.714844 C 1419.6875 794.390625 1419.144531 793.941406 1418.738281 793.371094 C 1418.351562 793.941406 1417.820312 794.390625 1417.140625 794.714844 C 1416.460938 795.039062 1415.652344 795.199219 1414.71875 795.199219 L 1414.355469 795.199219 L 1414.355469 793.34375 L 1414.535156 793.34375 C 1415.632812 793.34375 1416.449219 793.089844 1416.988281 792.582031 C 1417.527344 792.074219 1417.796875 791.351562 1417.796875 790.421875 L 1417.796875 784.542969 C 1417.796875 784.195312 1417.886719 783.917969 1418.070312 783.703125 C 1418.253906 783.492188 1418.472656 783.386719 1418.738281 783.386719 C 1419.023438 783.386719 1419.261719 783.492188 1419.453125 783.703125 C 1419.648438 783.917969 1419.742188 784.195312 1419.742188 784.542969 L 1419.742188 790.421875 C 1419.742188 791.351562 1420.007812 792.074219 1420.535156 792.582031 C 1421.0625 793.089844 1421.875 793.34375 1422.972656 793.34375 Z M 1423.152344 793.34375 "/><path fill-rule="nonzero" fill="#FFFFFF" fill-opacity="1" d="M 1422.789062 795.199219 L 1422.789062 793.34375 L 1422.972656 793.34375 C 1424.070312 793.34375 1424.886719 793.089844 1425.425781 792.582031 C 1425.960938 792.074219 1426.230469 791.351562 1426.230469 790.417969 L 1426.230469 777.140625 C 1426.230469 776.796875 1426.328125 776.519531 1426.519531 776.304688 C 1426.714844 776.089844 1426.941406 775.984375 1427.203125 775.984375 C 1427.488281 775.984375 1427.71875 776.089844 1427.890625 776.304688 C 1428.0625 776.519531 1428.148438 776.796875 1428.148438 777.140625 L 1428.148438 790.511719 C 1428.148438 791.425781 1427.957031 792.230469 1427.570312 792.929688 C 1427.183594 793.632812 1426.621094 794.183594 1425.882812 794.589844 C 1425.140625 794.996094 1424.230469 795.199219 1423.15625 795.199219 Z M 1422.789062 795.199219 "/><path fill-rule="nonzero" fill="#FFFFFF" fill-opacity="1" d="M 1436.851562 795.199219 L 1436.515625 795.199219 C 1435.4375 795.199219 1434.523438 794.996094 1433.773438 794.589844 C 1433.023438 794.183594 1432.453125 793.632812 1432.066406 792.929688 C 1431.683594 792.230469 1431.488281 791.425781 1431.488281 790.511719 L 1431.488281 777.140625 C 1431.488281 776.796875 1431.585938 776.519531 1431.777344 776.304688 C 1431.972656 776.089844 1432.199219 775.984375 1432.464844 775.984375 C 1432.75 775.984375 1432.976562 776.089844 1433.148438 776.304688 C 1433.320312 776.519531 1433.410156 776.796875 1433.410156 777.140625 L 1433.410156 790.417969 C 1433.410156 791.351562 1433.675781 792.074219 1434.214844 792.582031 C 1434.753906 793.089844 1435.570312 793.34375 1436.667969 793.34375 L 1436.851562 793.34375 Z M 1436.851562 795.199219 "/><path fill-rule="nonzero" fill="#FFFFFF" fill-opacity="1" d="M 1446.898438 791.148438 L 1446.898438 788.164062 C 1446.898438 787.457031 1446.773438 786.886719 1446.519531 786.460938 C 1446.265625 786.035156 1445.945312 785.726562 1445.558594 785.53125 C 1445.175781 785.339844 1444.789062 785.242188 1444.402344 785.242188 C 1444.015625 785.242188 1443.625 785.339844 1443.230469 785.53125 C 1442.835938 785.726562 1442.503906 786.035156 1442.238281 786.460938 C 1441.976562 786.886719 1441.84375 787.457031 1441.84375 788.164062 L 1441.84375 791.148438 C 1441.84375 791.859375 1441.976562 792.429688 1442.238281 792.855469 C 1442.503906 793.28125 1442.835938 793.585938 1443.230469 793.769531 C 1443.625 793.953125 1444.015625 794.042969 1444.402344 794.042969 C 1444.789062 794.042969 1445.175781 793.953125 1445.558594 793.769531 C 1445.945312 793.585938 1446.265625 793.28125 1446.519531 792.855469 C 1446.773438 792.429688 1446.898438 791.859375 1446.898438 791.148438 M 1452.289062 793.34375 L 1452.289062 795.199219 L 1451.925781 795.199219 C 1451.113281 795.199219 1450.382812 795.078125 1449.730469 794.835938 C 1449.082031 794.589844 1448.554688 794.277344 1448.148438 793.890625 C 1447.761719 794.539062 1447.230469 795.035156 1446.550781 795.382812 C 1445.871094 795.726562 1445.152344 795.898438 1444.402344 795.898438 C 1443.652344 795.898438 1442.914062 795.722656 1442.195312 795.367188 C 1441.472656 795.011719 1440.929688 794.519531 1440.566406 793.890625 C 1440.179688 794.277344 1439.667969 794.589844 1439.027344 794.835938 C 1438.386719 795.078125 1437.660156 795.199219 1436.851562 795.199219 L 1436.484375 795.199219 L 1436.484375 793.34375 L 1436.667969 793.34375 C 1437.765625 793.34375 1438.582031 793.089844 1439.117188 792.582031 C 1439.65625 792.074219 1439.925781 791.351562 1439.925781 790.417969 L 1439.925781 788.042969 C 1439.925781 786.96875 1440.148438 786.089844 1440.597656 785.410156 C 1441.042969 784.730469 1441.605469 784.222656 1442.285156 783.886719 C 1442.964844 783.554688 1443.671875 783.386719 1444.402344 783.386719 C 1445.132812 783.386719 1445.839844 783.554688 1446.519531 783.886719 C 1447.199219 784.222656 1447.761719 784.730469 1448.210938 785.410156 C 1448.65625 786.089844 1448.878906 786.96875 1448.878906 788.042969 L 1448.878906 790.417969 C 1448.878906 791.351562 1449.136719 792.074219 1449.65625 792.582031 C 1450.175781 793.089844 1450.988281 793.34375 1452.109375 793.34375 Z M 1452.289062 793.34375 "/><path fill-rule="nonzero" fill="#FFFFFF" fill-opacity="1" d="M 1451.929688 795.199219 L 1451.929688 793.34375 L 1452.113281 793.34375 C 1453.210938 793.34375 1454.027344 793.089844 1454.5625 792.582031 C 1455.101562 792.074219 1455.371094 791.351562 1455.371094 790.417969 L 1455.371094 777.140625 C 1455.371094 776.796875 1455.46875 776.519531 1455.660156 776.304688 C 1455.851562 776.089844 1456.082031 775.984375 1456.347656 775.984375 C 1456.628906 775.984375 1456.859375 776.089844 1457.03125 776.304688 C 1457.203125 776.519531 1457.289062 776.796875 1457.289062 777.140625 L 1457.289062 790.511719 C 1457.289062 791.425781 1457.097656 792.230469 1456.710938 792.929688 C 1456.324219 793.632812 1455.761719 794.183594 1455.019531 794.589844 C 1454.28125 794.996094 1453.371094 795.199219 1452.296875 795.199219 Z M 1451.929688 795.199219 "/><path fill-rule="nonzero" fill="#FFFFFF" fill-opacity="1" d="M 1460.640625 777.144531 C 1460.640625 776.796875 1460.738281 776.519531 1460.929688 776.304688 C 1461.121094 776.09375 1461.351562 775.984375 1461.613281 775.984375 C 1461.898438 775.984375 1462.132812 776.09375 1462.316406 776.304688 C 1462.496094 776.519531 1462.589844 776.796875 1462.589844 777.144531 L 1462.589844 794.136719 C 1462.589844 794.480469 1462.496094 794.757812 1462.316406 794.972656 C 1462.132812 795.1875 1461.898438 795.292969 1461.613281 795.292969 C 1461.351562 795.292969 1461.121094 795.1875 1460.929688 794.972656 C 1460.738281 794.757812 1460.640625 794.480469 1460.640625 794.136719 Z M 1460.640625 777.144531 "/><path fill-rule="nonzero" fill="#FFFFFF" fill-opacity="1" d="M 1476.589844 800.53125 L 1475.007812 800.53125 C 1473.746094 800.53125 1472.738281 800.285156 1471.976562 799.800781 C 1471.214844 799.3125 1470.660156 798.691406 1470.316406 797.941406 C 1469.972656 797.191406 1469.800781 796.4375 1469.800781 795.6875 L 1469.800781 788.53125 C 1469.800781 788.1875 1469.894531 787.90625 1470.089844 787.695312 C 1470.28125 787.480469 1470.511719 787.375 1470.773438 787.375 C 1471.058594 787.375 1471.292969 787.480469 1471.472656 787.695312 C 1471.65625 787.90625 1471.746094 788.1875 1471.746094 788.53125 L 1471.746094 795.6875 C 1471.746094 795.929688 1471.789062 796.222656 1471.871094 796.554688 C 1471.949219 796.890625 1472.109375 797.222656 1472.34375 797.546875 C 1472.574219 797.871094 1472.914062 798.140625 1473.363281 798.351562 C 1473.808594 798.566406 1474.40625 798.671875 1475.160156 798.671875 L 1476.40625 798.671875 C 1477.15625 798.671875 1477.761719 798.566406 1478.21875 798.351562 C 1478.675781 798.140625 1479.019531 797.871094 1479.253906 797.546875 C 1479.488281 797.222656 1479.644531 796.890625 1479.726562 796.554688 C 1479.808594 796.222656 1479.847656 795.929688 1479.847656 795.6875 L 1479.847656 777.144531 C 1479.847656 776.796875 1479.945312 776.519531 1480.136719 776.304688 C 1480.332031 776.089844 1480.558594 775.984375 1480.824219 775.984375 C 1481.105469 775.984375 1481.339844 776.089844 1481.523438 776.304688 C 1481.707031 776.519531 1481.796875 776.796875 1481.796875 777.144531 L 1481.796875 795.6875 C 1481.796875 796.4375 1481.625 797.191406 1481.28125 797.941406 C 1480.933594 798.691406 1480.382812 799.3125 1479.621094 799.800781 C 1478.859375 800.285156 1477.847656 800.53125 1476.589844 800.53125 "/><path fill-rule="nonzero" fill="#FFFFFF" fill-opacity="1" d="M 1492.058594 793.34375 L 1492.058594 788.164062 C 1492.058594 787.457031 1491.929688 786.886719 1491.664062 786.460938 C 1491.398438 786.035156 1491.078125 785.726562 1490.703125 785.53125 C 1490.328125 785.339844 1489.949219 785.242188 1489.5625 785.242188 C 1489.175781 785.242188 1488.785156 785.339844 1488.390625 785.53125 C 1487.992188 785.726562 1487.667969 786.035156 1487.414062 786.460938 C 1487.160156 786.886719 1487.035156 787.457031 1487.035156 788.164062 L 1487.035156 790.449219 C 1487.035156 791.160156 1487.160156 791.726562 1487.414062 792.15625 C 1487.667969 792.582031 1487.992188 792.886719 1488.390625 793.066406 C 1488.785156 793.25 1489.175781 793.34375 1489.5625 793.34375 Z M 1497.449219 795.199219 L 1494.007812 795.199219 L 1494.007812 795.960938 C 1493.96875 796.671875 1493.769531 797.382812 1493.414062 798.09375 C 1493.058594 798.804688 1492.507812 799.386719 1491.757812 799.84375 C 1491.003906 800.300781 1490.019531 800.53125 1488.800781 800.53125 L 1486.242188 800.53125 C 1485.898438 800.53125 1485.613281 800.441406 1485.390625 800.269531 C 1485.167969 800.097656 1485.054688 799.878906 1485.054688 799.613281 C 1485.054688 799.332031 1485.167969 799.101562 1485.390625 798.929688 C 1485.613281 798.757812 1485.898438 798.671875 1486.242188 798.671875 L 1488.617188 798.671875 C 1489.328125 798.671875 1489.90625 798.574219 1490.355469 798.382812 C 1490.800781 798.1875 1491.136719 797.941406 1491.359375 797.636719 C 1491.582031 797.332031 1491.738281 797.027344 1491.832031 796.722656 C 1491.921875 796.417969 1491.976562 796.164062 1492 795.960938 L 1492.058594 795.199219 L 1489.53125 795.199219 C 1488.820312 795.199219 1488.121094 795.03125 1487.429688 794.699219 C 1486.742188 794.363281 1486.171875 793.851562 1485.726562 793.160156 C 1485.277344 792.46875 1485.054688 791.597656 1485.054688 790.539062 L 1485.054688 788.042969 C 1485.054688 786.96875 1485.277344 786.089844 1485.726562 785.410156 C 1486.171875 784.730469 1486.742188 784.222656 1487.429688 783.886719 C 1488.121094 783.554688 1488.820312 783.386719 1489.53125 783.386719 C 1490.261719 783.386719 1490.96875 783.554688 1491.648438 783.886719 C 1492.328125 784.222656 1492.890625 784.730469 1493.339844 785.410156 C 1493.785156 786.089844 1494.007812 786.96875 1494.007812 788.042969 L 1494.007812 793.34375 L 1497.449219 793.34375 Z M 1497.449219 795.199219 "/><path fill-rule="nonzero" fill="#FFFFFF" fill-opacity="1" d="M 1503.730469 795.199219 L 1497.121094 795.199219 L 1497.121094 793.34375 L 1503.730469 793.34375 Z M 1503.730469 795.199219 "/><path fill-rule="nonzero" fill="#FFFFFF" fill-opacity="1" d="M 1509.96875 795.199219 L 1503.363281 795.199219 L 1503.363281 793.34375 L 1509.96875 793.34375 Z M 1509.96875 795.199219 "/><path fill-rule="nonzero" fill="#FFFFFF" fill-opacity="1" d="M 1518.410156 793.34375 L 1518.410156 795.199219 L 1518.046875 795.199219 C 1517.109375 795.199219 1516.304688 795.042969 1515.625 794.726562 C 1514.941406 794.414062 1514.410156 794.003906 1514.023438 793.496094 C 1513.640625 794.003906 1513.101562 794.414062 1512.410156 794.726562 C 1511.722656 795.042969 1510.910156 795.199219 1509.976562 795.199219 L 1509.609375 795.199219 L 1509.609375 793.34375 L 1509.792969 793.34375 C 1510.886719 793.34375 1511.707031 793.089844 1512.242188 792.582031 C 1512.78125 792.074219 1513.050781 791.351562 1513.050781 790.417969 L 1513.050781 777.140625 C 1513.050781 776.796875 1513.140625 776.519531 1513.324219 776.304688 C 1513.507812 776.089844 1513.738281 775.984375 1514.023438 775.984375 C 1514.308594 775.984375 1514.535156 776.089844 1514.710938 776.304688 C 1514.882812 776.519531 1514.96875 776.796875 1514.96875 777.140625 L 1514.96875 790.417969 C 1514.96875 791.351562 1515.238281 792.074219 1515.777344 792.582031 C 1516.3125 793.089844 1517.132812 793.34375 1518.226562 793.34375 Z M 1518.410156 793.34375 "/><path fill-rule="nonzero" fill="#FFFFFF" fill-opacity="1" d="M 1534.449219 793.34375 L 1534.449219 795.199219 L 1534.085938 795.199219 C 1533.152344 795.199219 1532.339844 795.042969 1531.648438 794.726562 C 1530.960938 794.414062 1530.421875 793.980469 1530.035156 793.433594 C 1529.589844 794.023438 1529.035156 794.464844 1528.375 794.757812 C 1527.714844 795.054688 1527 795.199219 1526.226562 795.199219 L 1518.035156 795.199219 L 1518.035156 793.34375 L 1526.167969 793.34375 C 1526.714844 793.34375 1527.207031 793.230469 1527.644531 793.007812 C 1528.078125 792.785156 1528.429688 792.449219 1528.695312 792.003906 C 1528.960938 791.554688 1529.089844 791.019531 1529.089844 790.390625 L 1529.089844 788.410156 C 1529.089844 787.738281 1528.960938 787.1875 1528.695312 786.75 C 1528.429688 786.3125 1528.078125 785.984375 1527.644531 785.761719 C 1527.207031 785.535156 1526.714844 785.425781 1526.167969 785.425781 L 1522.210938 785.425781 C 1521.863281 785.425781 1521.585938 785.335938 1521.371094 785.148438 C 1521.15625 784.96875 1521.050781 784.746094 1521.050781 784.480469 C 1521.050781 784.21875 1521.15625 784 1521.371094 783.824219 C 1521.585938 783.652344 1521.863281 783.566406 1522.210938 783.566406 L 1526.226562 783.566406 C 1527.183594 783.566406 1528.019531 783.769531 1528.738281 784.175781 C 1529.460938 784.582031 1530.019531 785.140625 1530.414062 785.851562 C 1530.8125 786.5625 1531.007812 787.386719 1531.007812 788.316406 L 1531.007812 790.417969 C 1531.007812 791.351562 1531.277344 792.074219 1531.816406 792.582031 C 1532.355469 793.089844 1533.171875 793.34375 1534.269531 793.34375 Z M 1534.449219 793.34375 "/><path fill-rule="nonzero" fill="#FFFFFF" fill-opacity="1" d="M 1534.089844 795.199219 L 1534.089844 793.34375 L 1534.273438 793.34375 C 1535.367188 793.34375 1536.1875 793.089844 1536.722656 792.582031 C 1537.261719 792.074219 1537.53125 791.351562 1537.53125 790.417969 L 1537.53125 777.140625 C 1537.53125 776.796875 1537.628906 776.519531 1537.820312 776.304688 C 1538.011719 776.089844 1538.242188 775.984375 1538.503906 775.984375 C 1538.789062 775.984375 1539.019531 776.089844 1539.191406 776.304688 C 1539.363281 776.519531 1539.449219 776.796875 1539.449219 777.140625 L 1539.449219 790.511719 C 1539.449219 791.425781 1539.257812 792.230469 1538.871094 792.929688 C 1538.484375 793.632812 1537.921875 794.183594 1537.179688 794.589844 C 1536.441406 794.996094 1535.53125 795.199219 1534.453125 795.199219 Z M 1534.089844 795.199219 "/><path fill-rule="nonzero" fill="#FFFFFF" fill-opacity="1" d="M 1542.800781 777.144531 C 1542.800781 776.796875 1542.898438 776.519531 1543.089844 776.304688 C 1543.28125 776.09375 1543.511719 775.984375 1543.773438 775.984375 C 1544.058594 775.984375 1544.292969 776.09375 1544.476562 776.304688 C 1544.65625 776.519531 1544.75 776.796875 1544.75 777.144531 L 1544.75 794.136719 C 1544.75 794.480469 1544.65625 794.757812 1544.476562 794.972656 C 1544.292969 795.1875 1544.058594 795.292969 1543.773438 795.292969 C 1543.511719 795.292969 1543.28125 795.1875 1543.089844 794.972656 C 1542.898438 794.757812 1542.800781 794.480469 1542.800781 794.136719 Z M 1542.800781 777.144531 "/><path fill-rule="nonzero" fill="#FFFFFF" fill-opacity="1" d="M 1555.011719 793.34375 L 1555.011719 788.164062 C 1555.011719 787.457031 1554.878906 786.886719 1554.613281 786.460938 C 1554.351562 786.035156 1554.03125 785.726562 1553.652344 785.53125 C 1553.277344 785.339844 1552.898438 785.242188 1552.511719 785.242188 C 1552.125 785.242188 1551.734375 785.339844 1551.339844 785.53125 C 1550.945312 785.726562 1550.613281 786.035156 1550.351562 786.460938 C 1550.085938 786.886719 1549.953125 787.457031 1549.953125 788.164062 L 1549.953125 790.449219 C 1549.953125 791.160156 1550.085938 791.726562 1550.351562 792.15625 C 1550.613281 792.582031 1550.945312 792.886719 1551.339844 793.066406 C 1551.734375 793.25 1552.125 793.34375 1552.511719 793.34375 Z M 1555.011719 795.199219 L 1552.480469 795.199219 C 1551.773438 795.199219 1551.070312 795.03125 1550.382812 794.699219 C 1549.691406 794.363281 1549.121094 793.851562 1548.675781 793.160156 C 1548.230469 792.46875 1548.007812 791.597656 1548.007812 790.539062 L 1548.007812 788.042969 C 1548.007812 786.96875 1548.230469 786.089844 1548.675781 785.410156 C 1549.121094 784.730469 1549.691406 784.222656 1550.382812 783.886719 C 1551.070312 783.554688 1551.773438 783.386719 1552.480469 783.386719 C 1553.214844 783.386719 1553.917969 783.554688 1554.597656 783.886719 C 1555.277344 784.222656 1555.84375 784.730469 1556.289062 785.410156 C 1556.734375 786.089844 1556.960938 786.96875 1556.960938 788.042969 L 1556.960938 795.6875 C 1556.960938 796.4375 1556.785156 797.191406 1556.441406 797.941406 C 1556.097656 798.691406 1555.542969 799.3125 1554.78125 799.800781 C 1554.019531 800.285156 1553.011719 800.53125 1551.75 800.53125 L 1549.164062 800.53125 C 1548.839844 800.53125 1548.5625 800.441406 1548.339844 800.269531 C 1548.117188 800.097656 1548.007812 799.878906 1548.007812 799.613281 C 1548.007812 799.332031 1548.117188 799.101562 1548.339844 798.929688 C 1548.5625 798.757812 1548.839844 798.671875 1549.164062 798.671875 L 1551.570312 798.671875 C 1552.277344 798.671875 1552.851562 798.574219 1553.289062 798.382812 C 1553.726562 798.1875 1554.058594 797.941406 1554.296875 797.636719 C 1554.527344 797.332031 1554.691406 797.027344 1554.78125 796.722656 C 1554.871094 796.417969 1554.929688 796.164062 1554.949219 795.960938 Z M 1555.011719 795.199219 "/><path fill-rule="nonzero" fill="#FFFFFF" fill-opacity="1" d="M 1600.378906 752.800781 C 1599 752.800781 1597.863281 752.296875 1596.976562 751.285156 C 1596.089844 750.273438 1595.671875 749.203125 1595.71875 748.066406 L 1595.71875 747.621094 C 1595.671875 746.390625 1596.089844 745.28125 1596.976562 744.292969 C 1597.863281 743.308594 1599 742.816406 1600.378906 742.816406 C 1601.859375 742.816406 1603.03125 743.308594 1603.894531 744.292969 C 1604.757812 745.28125 1605.1875 746.390625 1605.1875 747.621094 L 1605.1875 748.066406 C 1605.1875 749.203125 1604.757812 750.273438 1603.894531 751.285156 C 1603.03125 752.296875 1601.859375 752.800781 1600.378906 752.800781 M 1602.527344 798.589844 L 1599.269531 798.589844 C 1595.914062 798.589844 1593.15625 797.921875 1590.984375 796.59375 C 1588.816406 795.261719 1587.199219 793.546875 1586.140625 791.449219 C 1585.078125 789.355469 1584.550781 787.125 1584.550781 784.757812 L 1584.550781 770.777344 C 1584.550781 769.246094 1585.019531 767.976562 1585.953125 766.964844 C 1586.890625 765.957031 1588.003906 765.449219 1589.285156 765.449219 C 1590.617188 765.449219 1591.738281 765.957031 1592.652344 766.964844 C 1593.5625 767.976562 1594.019531 769.246094 1594.019531 770.777344 L 1594.019531 784.757812 C 1594.019531 785.347656 1594.105469 785.941406 1594.277344 786.53125 C 1594.449219 787.125 1594.734375 787.652344 1595.128906 788.121094 C 1595.523438 788.589844 1596.113281 788.972656 1596.902344 789.269531 C 1597.691406 789.566406 1598.726562 789.714844 1600.011719 789.714844 L 1601.859375 789.714844 C 1603.140625 789.714844 1604.175781 789.566406 1604.96875 789.269531 C 1605.753906 788.972656 1606.359375 788.589844 1606.777344 788.121094 C 1607.195312 787.652344 1607.480469 787.125 1607.628906 786.53125 C 1607.777344 785.941406 1607.851562 785.347656 1607.851562 784.757812 L 1607.851562 761.085938 C 1607.851562 759.558594 1608.320312 758.285156 1609.257812 757.277344 C 1610.191406 756.265625 1611.277344 755.757812 1612.511719 755.757812 C 1613.84375 755.757812 1614.976562 756.265625 1615.914062 757.277344 C 1616.851562 758.285156 1617.320312 759.558594 1617.320312 761.085938 L 1617.320312 784.757812 C 1617.320312 787.125 1616.789062 789.355469 1615.730469 791.449219 C 1614.667969 793.546875 1613.054688 795.261719 1610.882812 796.59375 C 1608.714844 797.921875 1605.929688 798.589844 1602.527344 798.589844 "/><path fill-rule="nonzero" fill="#FFFFFF" fill-opacity="1" d="M 1639.660156 776.769531 L 1639.660156 769.296875 C 1639.660156 768.0625 1639.488281 767.101562 1639.140625 766.410156 C 1638.796875 765.722656 1638.390625 765.253906 1637.921875 765.007812 C 1637.453125 764.761719 1636.972656 764.636719 1636.480469 764.636719 C 1635.984375 764.636719 1635.480469 764.761719 1634.964844 765.007812 C 1634.445312 765.253906 1634.027344 765.722656 1633.707031 766.410156 C 1633.382812 767.101562 1633.226562 768.0625 1633.226562 769.296875 L 1633.226562 772.105469 C 1633.226562 773.390625 1633.382812 774.375 1633.707031 775.066406 C 1634.027344 775.757812 1634.445312 776.214844 1634.964844 776.433594 C 1635.480469 776.65625 1635.984375 776.769531 1636.480469 776.769531 Z M 1655.34375 785.644531 L 1649.054688 785.644531 L 1649.054688 786.234375 C 1648.855469 788.453125 1648.203125 790.5 1647.09375 792.375 C 1645.984375 794.25 1644.382812 795.753906 1642.285156 796.886719 C 1640.1875 798.023438 1637.5625 798.589844 1634.40625 798.589844 L 1629.082031 798.589844 C 1627.601562 798.589844 1626.347656 798.167969 1625.308594 797.332031 C 1624.273438 796.492188 1623.757812 795.433594 1623.757812 794.152344 C 1623.757812 792.867188 1624.273438 791.808594 1625.308594 790.96875 C 1626.347656 790.132812 1627.601562 789.714844 1629.082031 789.714844 L 1633.667969 789.714844 C 1634.703125 789.714844 1635.578125 789.613281 1636.296875 789.414062 C 1637.007812 789.21875 1637.574219 788.945312 1637.996094 788.601562 C 1638.414062 788.257812 1638.746094 787.875 1638.992188 787.457031 C 1639.238281 787.035156 1639.414062 786.605469 1639.511719 786.160156 L 1639.585938 785.644531 L 1636.480469 785.644531 C 1634.554688 785.644531 1632.605469 785.199219 1630.636719 784.3125 C 1628.664062 783.425781 1627.023438 782.007812 1625.714844 780.058594 C 1624.410156 778.113281 1623.757812 775.511719 1623.757812 772.253906 L 1623.757812 769.148438 C 1623.757812 765.894531 1624.410156 763.28125 1625.714844 761.308594 C 1627.023438 759.335938 1628.664062 757.917969 1630.636719 757.054688 C 1632.605469 756.191406 1634.554688 755.761719 1636.480469 755.761719 C 1638.402344 755.761719 1640.324219 756.191406 1642.25 757.054688 C 1644.171875 757.917969 1645.800781 759.335938 1647.132812 761.308594 C 1648.460938 763.28125 1649.128906 765.894531 1649.128906 769.148438 L 1649.128906 776.769531 L 1655.34375 776.769531 Z M 1655.34375 785.644531 "/><path fill-rule="nonzero" fill="#FFFFFF" fill-opacity="1" d="M 1670.511719 785.644531 L 1654.457031 785.644531 L 1654.457031 776.769531 L 1670.511719 776.769531 Z M 1670.511719 785.644531 "/><path fill-rule="nonzero" fill="#FFFFFF" fill-opacity="1" d="M 1685.671875 785.644531 L 1669.617188 785.644531 L 1669.617188 776.769531 L 1685.671875 776.769531 Z M 1685.671875 785.644531 "/><path fill-rule="nonzero" fill="#FFFFFF" fill-opacity="1" d="M 1700.839844 785.644531 L 1684.789062 785.644531 L 1684.789062 776.769531 L 1700.839844 776.769531 Z M 1700.839844 785.644531 "/><path fill-rule="nonzero" fill="#FFFFFF" fill-opacity="1" d="M 1716 785.644531 L 1699.949219 785.644531 L 1699.949219 776.769531 L 1716 776.769531 Z M 1716 785.644531 "/><path fill-rule="nonzero" fill="#FFFFFF" fill-opacity="1" d="M 1730.71875 752.875 C 1729.535156 752.875 1728.550781 752.46875 1727.761719 751.652344 C 1726.972656 750.839844 1726.578125 749.84375 1726.578125 748.660156 L 1726.578125 748.066406 C 1726.578125 746.835938 1726.972656 745.808594 1727.761719 744.996094 C 1728.550781 744.183594 1729.535156 743.777344 1730.71875 743.777344 C 1731.855469 743.777344 1732.816406 744.183594 1733.605469 744.996094 C 1734.394531 745.808594 1734.789062 746.835938 1734.789062 748.066406 L 1734.789062 748.660156 C 1734.789062 749.84375 1734.394531 750.839844 1733.605469 751.652344 C 1732.816406 752.46875 1731.855469 752.875 1730.71875 752.875 M 1721.179688 752.875 C 1720.042969 752.875 1719.082031 752.46875 1718.292969 751.652344 C 1717.503906 750.839844 1717.109375 749.84375 1717.109375 748.660156 L 1717.109375 748.066406 C 1717.109375 746.835938 1717.503906 745.808594 1718.292969 744.996094 C 1719.082031 744.183594 1720.042969 743.777344 1721.179688 743.777344 C 1722.359375 743.777344 1723.347656 744.183594 1724.136719 744.996094 C 1724.925781 745.808594 1725.320312 746.835938 1725.320312 748.066406 L 1725.320312 748.660156 C 1725.320312 749.84375 1724.925781 750.839844 1724.136719 751.652344 C 1723.347656 752.46875 1722.359375 752.875 1721.179688 752.875 M 1736.933594 776.769531 L 1736.933594 785.644531 L 1735.898438 785.644531 C 1733.726562 785.644531 1731.828125 785.359375 1730.203125 784.792969 C 1728.574219 784.226562 1727.167969 783.425781 1725.984375 782.390625 C 1724.851562 783.425781 1723.445312 784.226562 1721.769531 784.792969 C 1720.09375 785.359375 1718.21875 785.644531 1716.148438 785.644531 L 1715.113281 785.644531 L 1715.113281 776.769531 L 1715.40625 776.769531 C 1717.726562 776.769531 1719.277344 776.300781 1720.070312 775.363281 C 1720.855469 774.425781 1721.253906 773.242188 1721.253906 771.8125 L 1721.253906 761.085938 C 1721.253906 759.558594 1721.71875 758.285156 1722.65625 757.277344 C 1723.59375 756.265625 1724.703125 755.761719 1725.984375 755.761719 C 1727.316406 755.761719 1728.4375 756.265625 1729.351562 757.277344 C 1730.265625 758.285156 1730.71875 759.558594 1730.71875 761.085938 L 1730.71875 771.8125 C 1730.71875 773.242188 1731.113281 774.425781 1731.902344 775.363281 C 1732.691406 776.300781 1734.269531 776.769531 1736.636719 776.769531 Z M 1736.933594 776.769531 "/><path fill-rule="nonzero" fill="#FFFFFF" fill-opacity="1" d="M 1746.921875 788.382812 C 1748.398438 788.382812 1749.582031 788.875 1750.46875 789.859375 C 1751.359375 790.847656 1751.777344 791.957031 1751.726562 793.191406 L 1751.726562 793.558594 C 1751.777344 794.742188 1751.359375 795.839844 1750.46875 796.851562 C 1749.582031 797.859375 1748.398438 798.367188 1746.921875 798.367188 C 1745.539062 798.367188 1744.40625 797.859375 1743.515625 796.851562 C 1742.628906 795.839844 1742.210938 794.742188 1742.257812 793.558594 L 1742.257812 793.191406 C 1742.210938 791.957031 1742.628906 790.847656 1743.515625 789.859375 C 1744.40625 788.875 1745.539062 788.382812 1746.921875 788.382812 M 1757.867188 776.769531 L 1757.867188 785.644531 L 1756.832031 785.644531 C 1754.660156 785.644531 1752.761719 785.363281 1751.136719 784.792969 C 1749.507812 784.226562 1748.101562 783.449219 1746.921875 782.464844 C 1745.785156 783.449219 1744.378906 784.226562 1742.703125 784.792969 C 1741.027344 785.363281 1739.152344 785.644531 1737.082031 785.644531 L 1736.046875 785.644531 L 1736.046875 776.769531 L 1736.339844 776.769531 C 1738.660156 776.769531 1740.210938 776.300781 1741.003906 775.363281 C 1741.789062 774.425781 1742.183594 773.242188 1742.183594 771.8125 L 1742.183594 761.085938 C 1742.183594 759.558594 1742.652344 758.289062 1743.589844 757.277344 C 1744.527344 756.265625 1745.636719 755.761719 1746.921875 755.761719 C 1748.25 755.761719 1749.371094 756.265625 1750.285156 757.277344 C 1751.195312 758.289062 1751.652344 759.558594 1751.652344 761.085938 L 1751.652344 771.8125 C 1751.652344 773.242188 1752.046875 774.425781 1752.835938 775.363281 C 1753.625 776.300781 1755.203125 776.769531 1757.570312 776.769531 Z M 1757.867188 776.769531 "/><path fill-rule="nonzero" fill="#FFFFFF" fill-opacity="1" d="M 1762.460938 789.269531 L 1770.742188 789.269531 C 1771.433594 789.269531 1772.027344 789.492188 1772.519531 789.933594 C 1773.011719 790.378906 1773.257812 790.921875 1773.257812 791.5625 C 1773.257812 792.203125 1773.011719 792.746094 1772.519531 793.191406 C 1772.027344 793.632812 1771.433594 793.855469 1770.742188 793.855469 L 1762.460938 793.855469 C 1761.769531 793.855469 1761.164062 793.632812 1760.648438 793.191406 C 1760.128906 792.746094 1759.871094 792.203125 1759.871094 791.5625 C 1759.871094 790.921875 1760.128906 790.378906 1760.648438 789.933594 C 1761.164062 789.492188 1761.769531 789.269531 1762.460938 789.269531 "/><path fill-rule="nonzero" fill="#FFFFFF" fill-opacity="1" d="M 1767.851562 752.875 C 1766.46875 752.875 1765.335938 752.371094 1764.445312 751.359375 C 1763.558594 750.347656 1763.140625 749.277344 1763.1875 748.140625 L 1763.1875 747.695312 C 1763.140625 746.464844 1763.558594 745.355469 1764.445312 744.367188 C 1765.335938 743.382812 1766.46875 742.890625 1767.851562 742.890625 C 1769.328125 742.890625 1770.511719 743.382812 1771.402344 744.367188 C 1772.289062 745.355469 1772.707031 746.464844 1772.65625 747.695312 L 1772.65625 748.140625 C 1772.707031 749.277344 1772.289062 750.347656 1771.402344 751.359375 C 1770.511719 752.371094 1769.328125 752.875 1767.851562 752.875 M 1756.976562 785.644531 L 1756.976562 776.769531 L 1757.273438 776.769531 C 1759.589844 776.769531 1761.140625 776.300781 1761.933594 775.363281 C 1762.71875 774.425781 1763.113281 773.242188 1763.113281 771.8125 L 1763.113281 761.085938 C 1763.113281 759.558594 1763.582031 758.285156 1764.519531 757.277344 C 1765.457031 756.265625 1766.566406 755.761719 1767.851562 755.761719 C 1769.179688 755.761719 1770.300781 756.265625 1771.214844 757.277344 C 1772.128906 758.285156 1772.585938 759.558594 1772.585938 761.085938 L 1772.585938 771.8125 C 1772.585938 774.277344 1772.054688 776.558594 1770.992188 778.652344 C 1769.933594 780.75 1768.316406 782.4375 1766.148438 783.722656 C 1763.976562 785.003906 1761.265625 785.644531 1758.011719 785.644531 Z M 1756.976562 785.644531 "/><path fill-rule="nonzero" fill="rgb(91.799927%, 30.599976%, 30.599976%)" fill-opacity="1" d="M 1567.851562 785.265625 C 1566.984375 784.769531 1566.296875 784.101562 1565.792969 783.253906 C 1565.285156 782.410156 1565.03125 781.480469 1565.03125 780.460938 C 1565.03125 779.414062 1565.285156 778.46875 1565.792969 777.625 C 1566.296875 776.78125 1566.976562 776.109375 1567.828125 775.613281 C 1568.683594 775.117188 1569.628906 774.871094 1570.667969 774.871094 C 1571.703125 774.871094 1572.65625 775.117188 1573.523438 775.613281 C 1574.390625 776.109375 1575.074219 776.78125 1575.582031 777.625 C 1576.085938 778.46875 1576.339844 779.414062 1576.339844 780.460938 C 1576.339844 781.480469 1576.085938 782.410156 1575.582031 783.253906 C 1575.074219 784.101562 1574.390625 784.769531 1573.523438 785.265625 C 1572.65625 785.761719 1571.703125 786.011719 1570.667969 786.011719 C 1569.652344 786.011719 1568.714844 785.761719 1567.851562 785.265625 "/></svg>