<svg xmlns="http://www.w3.org/2000/svg" viewBox="0 0 808.98 102.51" role="img" aria-label="Neptune — Financial Technology And Solutions"><g transform="translate(869 0)"><path fill="#1A335E" d="M-827,9.9c0-3.17.69-5.62,2.07-7.33,1.38-1.71,3.36-2.57,5.95-2.57s4.47.86,5.89,2.57c1.42,1.71,2.13,4.16,2.13,7.33v56.39c0,2.93-.69,5.49-2.07,7.71-1.38,2.21-3.7,3.32-6.95,3.32-1.84,0-3.45-.48-4.83-1.44-1.38-.96-2.74-2.57-4.07-4.82l-24.06-40.85v37.34c0,3.18-.69,5.62-2.07,7.33-1.38,1.71-3.36,2.57-5.95,2.57s-4.47-.86-5.89-2.57c-1.42-1.71-2.13-4.16-2.13-7.33V12.16c0-3.26.75-6.08,2.26-8.46s4.01-3.57,7.52-3.57c2.09,0,3.86.52,5.33,1.57,1.46,1.04,2.9,2.78,4.32,5.2l22.56,38.35V9.9Z"/><path fill="#1A335E" d="M-782.89,57.15c0,2.26.9,3.97,2.69,5.14,1.8,1.17,4.36,1.75,7.71,1.75,2.26,0,4.55-.19,6.89-.56,2.34-.38,4.22-.81,5.64-1.32.67-.17,1.25-.25,1.75-.25,1.67,0,3.11.63,4.32,1.88,1.21,1.25,1.82,2.8,1.82,4.64,0,.92-.21,1.84-.63,2.76-.42.92-1,1.63-1.76,2.13-1.5,1.25-4.01,2.26-7.52,3.01-3.51.75-7.35,1.13-11.53,1.13-8.27,0-14.64-2-19.11-6.02-4.47-4.01-6.7-9.69-6.7-17.04v-4.51c0-8.1,2.13-14.31,6.39-18.61,4.26-4.3,10.36-6.45,18.3-6.45,8.35,0,14.45,2.42,18.3,7.27,1.34,1.67,2.49,3.97,3.45,6.89.96,2.92,1.44,5.72,1.44,8.4,0,3.34-1.13,5.66-3.38,6.96-2.25,1.3-4.81,1.94-7.64,1.94h-20.43v.88ZM-768.85,38.72c-1.25-1.34-3.13-2-5.64-2-2.76,0-4.81.69-6.14,2.07-1.34,1.38-2.17,3.66-2.51,6.83h16.79c-.42-3.26-1.25-5.55-2.51-6.89Z"/><path fill="#1A335E" d="M-713.08,24.81c6.35,0,11.22,2.07,14.6,6.2,3.38,4.14,5.08,10.09,5.08,17.86v4.26c0,7.77-1.73,13.77-5.2,17.98-3.47,4.22-8.33,6.33-14.6,6.33-2.51,0-4.79-.31-6.83-.94-2.05-.63-3.82-1.52-5.33-2.7v18.55c0,3.26-.71,5.76-2.13,7.52-1.42,1.75-3.43,2.63-6.02,2.63s-4.72-.88-6.14-2.63c-1.42-1.75-2.13-4.26-2.13-7.52V31.71c0-4.59,2.51-6.89,7.52-6.89,1.75,0,3.2.4,4.32,1.19,1.13.8,1.94,2.24,2.44,4.32,3.42-3.68,8.23-5.51,14.41-5.51ZM-723.48,60.72c1.08,1.55,3.01,2.32,5.76,2.32s4.61-.83,5.83-2.51c1.21-1.67,1.82-4.39,1.82-8.14v-2.51c0-3.84-.56-6.58-1.69-8.21s-3.03-2.44-5.7-2.44-4.76.84-6.02,2.51c-1.25,1.67-1.88,4.39-1.88,8.14l.13,2.51c.08,4.01.67,6.79,1.76,8.33Z"/><path fill="#1A335E" d="M-682.63,40.73c-2.17,0-3.99-.69-5.45-2.07-1.46-1.38-2.19-3.11-2.19-5.2s.73-3.82,2.19-5.2c1.46-1.38,3.28-2.07,5.45-2.07h2l.63-8.02c.58-5.93,3.26-8.9,8.02-8.9,2.42,0,4.32.84,5.7,2.51,1.38,1.67,2.07,4.01,2.07,7.02v7.39h8.9c2.84,0,5.03.63,6.58,1.88s2.32,3.05,2.32,5.39-.77,4.03-2.32,5.33c-1.55,1.3-3.74,1.94-6.58,1.94h-8.9v12.03c0,3.59.44,6.04,1.32,7.33.88,1.3,2.44,1.94,4.7,1.94.83,0,1.55-.04,2.13-.13.58-.08,1.67-.29,3.26-.63h.88c2,0,3.65.75,4.95,2.25,1.29,1.5,1.94,3.22,1.94,5.14s-.67,3.53-2,4.83c-1.34,1.3-3.38,2.28-6.14,2.94-2.76.67-6.23,1-10.4,1-7.19,0-12.07-2.3-14.66-6.89-.84-1.5-1.46-3.61-1.88-6.33-.42-2.71-.63-6.03-.63-9.96v-13.53h-1.88Z"/><path fill="#1A335E" d="M-620.85,77.45c-9.61,0-15.58-3.68-17.92-11.03-.34-1.5-.61-3.28-.81-5.33-.21-2.05-.31-4.74-.31-8.08v-18.17c0-3.17.71-5.64,2.13-7.39s3.47-2.63,6.14-2.63,4.59.88,6.02,2.63c1.42,1.75,2.13,4.22,2.13,7.39v16.92c0,3.93.33,6.69,1,8.27.42,1.09,1.04,1.86,1.88,2.32.83.46,1.88.69,3.13.69,2.84,0,4.8-1,5.89-3.01.58-1,1-2.36,1.25-4.07.25-1.71.38-3.82.38-6.33v-14.79c0-3.17.71-5.64,2.13-7.39,1.42-1.75,3.42-2.63,6.02-2.63s4.72.88,6.14,2.63c1.42,1.75,2.13,4.22,2.13,7.39v35.72c0,2.93-.81,4.81-2.45,5.64-1.63.83-3.66,1.25-6.08,1.25-1.25,0-2.44-.27-3.57-.81-1.13-.54-1.78-1.52-1.94-2.95-4.01,2.51-8.44,3.76-13.28,3.76Z"/><path fill="#1A335E" d="M-560.57,25.69c2.17-.58,4.76-.88,7.77-.88,9.27,0,15.08,3.76,17.42,11.28.5,1.42.85,3.22,1.06,5.39.21,2.17.31,4.93.31,8.27v17.54c0,3.26-.73,5.76-2.19,7.52-1.46,1.75-3.49,2.63-6.08,2.63s-4.62-.88-6.08-2.63c-1.46-1.75-2.19-4.26-2.19-7.52v-16.29c0-2.09-.06-3.84-.19-5.26-.13-1.42-.4-2.55-.81-3.38-.84-2.09-2.63-3.13-5.39-3.13-1.5,0-2.78.23-3.82.69-1.05.46-1.86,1.23-2.44,2.32-.67,1-1.15,2.38-1.44,4.14-.29,1.75-.44,4.01-.44,6.77v14.16c0,3.26-.71,5.76-2.13,7.52-1.42,1.75-3.43,2.63-6.02,2.63s-4.72-.88-6.14-2.63c-1.42-1.75-2.13-4.26-2.13-7.52V31.71c0-3.01.75-4.91,2.26-5.7,1.5-.79,3.46-1.19,5.89-1.19,1.34,0,2.61.27,3.82.81,1.21.54,1.94,1.57,2.19,3.07,2.34-1.42,4.59-2.42,6.77-3.01Z"/><path fill="#1A335E" d="M-508.06,57.15c0,2.26.9,3.97,2.69,5.14,1.8,1.17,4.36,1.75,7.71,1.75,2.26,0,4.55-.19,6.89-.56,2.34-.38,4.22-.81,5.64-1.32.67-.17,1.25-.25,1.75-.25,1.67,0,3.11.63,4.32,1.88,1.21,1.25,1.82,2.8,1.82,4.64,0,.92-.21,1.84-.63,2.76-.42.92-1,1.63-1.76,2.13-1.5,1.25-4.01,2.26-7.52,3.01-3.51.75-7.35,1.13-11.53,1.13-8.27,0-14.64-2-19.11-6.02-4.47-4.01-6.7-9.69-6.7-17.04v-4.51c0-8.1,2.13-14.31,6.39-18.61,4.26-4.3,10.36-6.45,18.3-6.45,8.35,0,14.45,2.42,18.3,7.27,1.34,1.67,2.49,3.97,3.45,6.89.96,2.92,1.44,5.72,1.44,8.4,0,3.34-1.13,5.66-3.38,6.96-2.25,1.3-4.81,1.94-7.64,1.94h-20.43v.88ZM-494.03,38.72c-1.25-1.34-3.13-2-5.64-2-2.76,0-4.81.69-6.14,2.07-1.34,1.38-2.17,3.66-2.51,6.83h16.79c-.42-3.26-1.25-5.55-2.51-6.89Z"/><path fill="#EA4E4E" d="M-458.74,76.09c-1.47-.84-2.63-1.98-3.49-3.41-.86-1.43-1.29-3.01-1.29-4.74s.43-3.37,1.29-4.8c.86-1.43,2.01-2.57,3.45-3.41,1.44-.84,3.05-1.26,4.81-1.26s3.37.42,4.84,1.26c1.47.84,2.63,1.98,3.49,3.41.86,1.43,1.29,3.03,1.29,4.8s-.43,3.3-1.29,4.74c-.86,1.43-2.02,2.57-3.49,3.41-1.47.84-3.08,1.26-4.84,1.26s-3.31-.42-4.77-1.26Z"/><path fill="#1A335E" d="M-422.94,27.19h9.91c.58,0,1.04.14,1.37.41.33.27.49.65.49,1.13s-.17.86-.49,1.13c-.33.27-.78.41-1.37.41h-9.91v12.54c0,.65-.16,1.18-.46,1.58-.31.39-.76.59-1.34.59-.55,0-.98-.2-1.29-.59-.31-.4-.46-.92-.46-1.58V15.89c0-.79.22-1.34.67-1.65.45-.31,1.01-.46,1.7-.46h12.79c.62,0,1.09.14,1.42.41.33.28.49.65.49,1.13s-.17.87-.49,1.16c-.33.29-.8.44-1.42.44h-11.61v10.27Z"/><path fill="#1A335E" d="M-402.23,16.23c.36.43.54,1.04.54,1.83s-.18,1.36-.54,1.81c-.36.45-.87.67-1.52.67s-1.11-.22-1.47-.67c-.36-.44-.54-1.05-.54-1.81s.18-1.4.54-1.83c.36-.43.85-.64,1.47-.64.65,0,1.16.21,1.52.64ZM-405.45,26.42c0-.65.15-1.16.44-1.52.29-.36.71-.54,1.27-.54s.97.18,1.26.54c.29.36.44.87.44,1.52v16.46c0,.65-.15,1.17-.44,1.55-.29.38-.71.57-1.26.57s-.97-.19-1.27-.57c-.29-.38-.44-.89-.44-1.55v-16.46Z"/><path fill="#1A335E" d="M-389.05,24.82c1-.38,2.18-.57,3.56-.57,3.68,0,5.93,1.52,6.76,4.54.17.48.28,1.14.33,1.99.05.84.08,1.87.08,3.07v9.03c0,.65-.15,1.17-.44,1.55-.29.38-.71.57-1.26.57s-.97-.19-1.27-.57c-.29-.38-.44-.89-.44-1.55v-8.72c0-1.1-.04-2.05-.13-2.84-.09-.79-.23-1.4-.44-1.81-.62-1.52-1.88-2.27-3.77-2.27-.96,0-1.82.15-2.58.46-.76.31-1.33.75-1.7,1.34-.38.51-.64,1.18-.8,2.01-.15.83-.23,1.96-.23,3.4v8.41c0,.65-.15,1.17-.44,1.55-.29.38-.71.57-1.26.57s-.97-.19-1.26-.57c-.29-.38-.44-.89-.44-1.55v-16.92c0-.62.16-1.04.46-1.26.31-.22.7-.34,1.19-.34.34,0,.65.14.93.41.27.27.45.89.52,1.86.76-.82,1.63-1.43,2.63-1.81Z"/><path fill="#1A335E" d="M-360.26,31.52c0-1.68-.31-2.85-.93-3.51-.62-.65-1.7-.98-3.25-.98-.93,0-1.82.14-2.68.41-.86.28-1.62.65-2.27,1.13-.24.21-.48.31-.72.31-.38,0-.71-.15-.98-.44-.28-.29-.41-.63-.41-1.01,0-.48.16-.84.46-1.08.79-.69,1.78-1.21,2.97-1.58,1.19-.36,2.47-.54,3.84-.54,1.62,0,2.98.22,4.1.64,1.12.43,1.95,1.09,2.5,1.99.34.55.58,1.24.7,2.07.12.82.18,2.13.18,3.92v10.47c0,.51-.15.92-.44,1.21s-.7.44-1.21.44c-.41,0-.75-.16-1-.49-.26-.33-.44-1.01-.54-2.04-.76.89-1.67,1.55-2.73,1.96-1.07.41-2.36.62-3.87.62-2.13,0-3.75-.5-4.85-1.5-1.1-1-1.65-2.48-1.65-4.44,0-2.54.86-4.37,2.58-5.47.76-.48,1.76-.84,3.02-1.08,1.26-.24,2.81-.36,4.67-.36h1.32c.29,0,.7.02,1.21.05v-.72ZM-361.34,34.57c-.41,0-.81-.02-1.19-.05-1.55,0-2.83.13-3.84.39-1.01.26-1.77.67-2.27,1.24-.5.57-.75,1.33-.75,2.29,0,1.38.39,2.32,1.16,2.81s1.76.75,2.97.75c.76,0,1.52-.13,2.3-.39.77-.26,1.44-.65,1.99-1.18.55-.53.82-1.23.82-2.09v-3.77h-1.18Z"/><path fill="#1A335E" d="M-344.22,24.82c1-.38,2.18-.57,3.56-.57,3.68,0,5.93,1.52,6.76,4.54.17.48.28,1.14.33,1.99.05.84.08,1.87.08,3.07v9.03c0,.65-.15,1.17-.44,1.55-.29.38-.71.57-1.26.57s-.97-.19-1.27-.57c-.29-.38-.44-.89-.44-1.55v-8.72c0-1.1-.04-2.05-.13-2.84-.09-.79-.23-1.4-.44-1.81-.62-1.52-1.88-2.27-3.77-2.27-.96,0-1.82.15-2.58.46-.76.31-1.33.75-1.7,1.34-.38.51-.64,1.18-.8,2.01-.15.83-.23,1.96-.23,3.4v8.41c0,.65-.15,1.17-.44,1.55-.29.38-.71.57-1.26.57s-.97-.19-1.26-.57c-.29-.38-.44-.89-.44-1.55v-16.92c0-.62.16-1.04.46-1.26.31-.22.7-.34,1.19-.34.34,0,.65.14.93.41s.45.89.52,1.86c.76-.82,1.63-1.43,2.63-1.81Z"/><path fill="#1A335E" d="M-325.54,26.6c1.45-1.56,3.54-2.35,6.29-2.35,1.2,0,2.24.15,3.12.44.88.29,1.66.78,2.35,1.47.38.34.57.74.57,1.18,0,.38-.14.74-.41,1.08-.28.34-.6.52-.98.52-.14,0-.27-.04-.39-.1-.12-.07-.28-.19-.49-.36-.96-.83-2.13-1.24-3.51-1.24-1.82,0-3.16.52-4.02,1.57-.86,1.05-1.29,2.69-1.29,4.93v1.86c0,2.2.43,3.83,1.29,4.88.86,1.05,2.18,1.57,3.97,1.57.79,0,1.51-.1,2.17-.31.65-.21,1.29-.53,1.91-.98.38-.24.67-.36.88-.36.41,0,.76.16,1.03.49.27.33.41.68.41,1.05,0,.52-.28.98-.83,1.4-1.48,1.13-3.46,1.7-5.93,1.7-2.72,0-4.78-.77-6.19-2.32-1.41-1.55-2.11-3.83-2.11-6.86v-2.43c0-2.99.72-5.27,2.17-6.84Z"/><path fill="#1A335E" d="M-304.47,16.23c.36.43.54,1.04.54,1.83s-.18,1.36-.54,1.81c-.36.45-.87.67-1.52.67s-1.11-.22-1.47-.67c-.36-.44-.54-1.05-.54-1.81s.18-1.4.54-1.83c.36-.43.85-.64,1.47-.64.65,0,1.16.21,1.52.64ZM-307.69,26.42c0-.65.15-1.16.44-1.52.29-.36.71-.54,1.27-.54s.97.18,1.26.54c.29.36.44.87.44,1.52v16.46c0,.65-.15,1.17-.44,1.55-.29.38-.71.57-1.26.57s-.97-.19-1.27-.57c-.29-.38-.44-.89-.44-1.55v-16.46Z"/><path fill="#1A335E" d="M-285.71,31.52c0-1.68-.31-2.85-.93-3.51-.62-.65-1.7-.98-3.25-.98-.93,0-1.82.14-2.68.41-.86.28-1.62.65-2.27,1.13-.24.21-.48.31-.72.31-.38,0-.71-.15-.98-.44-.28-.29-.41-.63-.41-1.01,0-.48.16-.84.46-1.08.79-.69,1.78-1.21,2.97-1.58,1.19-.36,2.47-.54,3.84-.54,1.62,0,2.98.22,4.1.64,1.12.43,1.95,1.09,2.5,1.99.34.55.58,1.24.7,2.07.12.82.18,2.13.18,3.92v10.47c0,.51-.15.92-.44,1.21s-.7.44-1.21.44c-.41,0-.75-.16-1-.49-.26-.33-.44-1.01-.54-2.04-.76.89-1.67,1.55-2.73,1.96-1.07.41-2.36.62-3.87.62-2.13,0-3.75-.5-4.85-1.5-1.1-1-1.65-2.48-1.65-4.44,0-2.54.86-4.37,2.58-5.47.76-.48,1.76-.84,3.02-1.08,1.26-.24,2.81-.36,4.67-.36h1.32c.29,0,.7.02,1.21.05v-.72ZM-286.8,34.57c-.41,0-.81-.02-1.19-.05-1.55,0-2.83.13-3.84.39-1.01.26-1.77.67-2.27,1.24-.5.57-.75,1.33-.75,2.29,0,1.38.39,2.32,1.16,2.81s1.76.75,2.97.75c.76,0,1.52-.13,2.3-.39.77-.26,1.44-.65,1.99-1.18.55-.53.82-1.23.82-2.09v-3.77h-1.18Z"/><path fill="#1A335E" d="M-273.85,42.98c-.48-.76-.82-1.75-1.03-2.97-.21-1.22-.31-2.91-.31-5.08V14.14c0-.69.15-1.21.44-1.58.29-.36.71-.54,1.27-.54s.97.18,1.26.54c.29.36.44.89.44,1.58v21.1c0,1.65.07,2.93.21,3.85.14.91.39,1.58.75,2.01.36.43.85.73,1.47.9.38.1.66.28.85.54.19.26.27.61.23,1.06,0,.41-.15.75-.44,1-.29.26-.66.39-1.11.39-1.79,0-3.13-.67-4.02-2.01Z"/><path fill="#1A335E" d="M-258.94,16.92c-.58,0-1.05-.14-1.39-.44-.34-.29-.52-.68-.52-1.16s.17-.86.52-1.13c.34-.27.81-.41,1.39-.41h18.26c.62,0,1.09.14,1.42.41.33.28.49.65.49,1.13s-.16.87-.49,1.16c-.33.29-.8.44-1.42.44h-7.38v25.9c0,.65-.15,1.18-.44,1.58-.29.39-.73.59-1.32.59-.55,0-.98-.2-1.29-.59-.31-.4-.46-.92-.46-1.58v-25.9h-7.38Z"/><path fill="#1A335E" d="M-236.03,36.22c0,2.06.46,3.58,1.37,4.54.91.96,2.33,1.45,4.26,1.45,1.03,0,2.01-.12,2.94-.36.93-.24,1.77-.6,2.53-1.08.28-.14.5-.21.67-.21.38,0,.7.15.98.44.28.29.41.63.41,1,0,.24-.06.46-.18.67s-.32.41-.59.62c-.79.55-1.8.98-3.02,1.29-1.22.31-2.54.46-3.95.46-2.92,0-5.13-.75-6.6-2.25-1.48-1.5-2.22-3.76-2.22-6.78v-2.42c0-3.06.73-5.38,2.19-6.97,1.46-1.58,3.62-2.37,6.47-2.37s4.95.81,6.29,2.43c.59.72,1.05,1.65,1.39,2.78.34,1.13.52,2.41.52,3.82,0,.69-.22,1.18-.67,1.5s-1.01.46-1.7.46h-11.09v.98ZM-227.1,28.25c-.76-.88-1.98-1.32-3.66-1.32s-3.04.46-3.87,1.39c-.83.93-1.29,2.41-1.39,4.44h10.22c-.1-2.13-.53-3.64-1.29-4.51Z"/><path fill="#1A335E" d="M-215.81,26.6c1.45-1.56,3.54-2.35,6.29-2.35,1.2,0,2.24.15,3.12.44.88.29,1.66.78,2.35,1.47.38.34.57.74.57,1.18,0,.38-.14.74-.41,1.08-.28.34-.6.52-.98.52-.14,0-.27-.04-.39-.1-.12-.07-.28-.19-.49-.36-.96-.83-2.13-1.24-3.51-1.24-1.82,0-3.16.52-4.02,1.57-.86,1.05-1.29,2.69-1.29,4.93v1.86c0,2.2.43,3.83,1.29,4.88.86,1.05,2.18,1.57,3.97,1.57.79,0,1.51-.1,2.17-.31.65-.21,1.29-.53,1.91-.98.38-.24.67-.36.88-.36.41,0,.76.16,1.03.49.27.33.41.68.41,1.05,0,.52-.28.98-.83,1.4-1.48,1.13-3.46,1.7-5.93,1.7-2.72,0-4.78-.77-6.19-2.32-1.41-1.55-2.11-3.83-2.11-6.86v-2.43c0-2.99.72-5.27,2.17-6.84Z"/><path fill="#1A335E" d="M-192.41,24.79c.94-.36,2.05-.54,3.33-.54,3.75,0,6.04,1.52,6.86,4.54.17.48.28,1.14.33,1.99.05.84.08,1.87.08,3.07v9.03c0,.65-.15,1.17-.44,1.55-.29.38-.71.57-1.26.57s-.97-.19-1.27-.57c-.29-.38-.44-.89-.44-1.55v-8.72c0-2.24-.19-3.82-.57-4.75-.65-1.45-1.91-2.17-3.77-2.17-.93,0-1.77.15-2.53.44-.76.29-1.34.71-1.75,1.27-.34.48-.6,1.14-.77,1.99-.17.84-.26,2.02-.26,3.53v8.41c0,.65-.15,1.17-.44,1.55-.29.38-.71.57-1.26.57s-.97-.19-1.26-.57c-.29-.38-.44-.89-.44-1.55V14.14c0-.69.15-1.21.44-1.58.29-.36.71-.54,1.26-.54s.97.18,1.26.54c.29.36.44.89.44,1.58v12.28c.69-.72,1.5-1.26,2.45-1.63Z"/><path fill="#1A335E" d="M-169.32,24.82c1-.38,2.18-.57,3.56-.57,3.68,0,5.93,1.52,6.76,4.54.17.48.28,1.14.33,1.99.05.84.08,1.87.08,3.07v9.03c0,.65-.15,1.17-.44,1.55-.29.38-.71.57-1.26.57s-.97-.19-1.27-.57c-.29-.38-.44-.89-.44-1.55v-8.72c0-1.1-.04-2.05-.13-2.84-.09-.79-.23-1.4-.44-1.81-.62-1.52-1.88-2.27-3.77-2.27-.96,0-1.82.15-2.58.46-.76.31-1.33.75-1.7,1.34-.38.51-.64,1.18-.8,2.01-.15.83-.23,1.96-.23,3.4v8.41c0,.65-.15,1.17-.44,1.55-.29.38-.71.57-1.26.57s-.97-.19-1.26-.57c-.29-.38-.44-.89-.44-1.55v-16.92c0-.62.16-1.04.46-1.26.31-.22.7-.34,1.19-.34.34,0,.65.14.93.41s.45.89.52,1.86c.76-.82,1.63-1.43,2.63-1.81Z"/><path fill="#1A335E" d="M-150.88,26.55c1.43-1.53,3.59-2.3,6.47-2.3s5.1.77,6.53,2.3c1.43,1.53,2.14,3.83,2.14,6.89v2.43c0,3.09-.71,5.4-2.14,6.91-1.43,1.51-3.6,2.27-6.53,2.27s-5.05-.76-6.47-2.27c-1.43-1.52-2.14-3.82-2.14-6.91v-2.43c0-3.06.71-5.35,2.14-6.89ZM-140.43,28.82c-.82-1.05-2.15-1.57-3.97-1.57s-3.09.52-3.92,1.57-1.24,2.69-1.24,4.93l.05,1.81c.07,2.41.48,4.09,1.24,5.06.76.96,2.05,1.44,3.87,1.44s3.15-.51,3.97-1.55c.83-1.03,1.24-2.67,1.24-4.9v-1.86c0-2.24-.41-3.88-1.24-4.93Z"/><path fill="#1A335E" d="M-128.46,42.98c-.48-.76-.82-1.75-1.03-2.97-.21-1.22-.31-2.91-.31-5.08V14.14c0-.69.15-1.21.44-1.58.29-.36.71-.54,1.27-.54s.97.18,1.26.54c.29.36.44.89.44,1.58v21.1c0,1.65.07,2.93.21,3.85.14.91.39,1.58.75,2.01.36.43.85.73,1.47.9.38.1.66.28.85.54.19.26.27.61.23,1.06,0,.41-.15.75-.44,1-.29.26-.66.39-1.11.39-1.79,0-3.13-.67-4.02-2.01Z"/><path fill="#1A335E" d="M-117.86,26.55c1.43-1.53,3.59-2.3,6.47-2.3s5.1.77,6.53,2.3c1.43,1.53,2.14,3.83,2.14,6.89v2.43c0,3.09-.71,5.4-2.14,6.91-1.43,1.51-3.6,2.27-6.53,2.27s-5.05-.76-6.47-2.27c-1.43-1.52-2.14-3.82-2.14-6.91v-2.43c0-3.06.71-5.35,2.14-6.89ZM-107.41,28.82c-.82-1.05-2.15-1.57-3.97-1.57s-3.09.52-3.92,1.57c-.83,1.05-1.24,2.69-1.24,4.93l.05,1.81c.07,2.41.48,4.09,1.24,5.06.76.96,2.05,1.44,3.87,1.44s3.15-.51,3.97-1.55c.83-1.03,1.24-2.67,1.24-4.9v-1.86c0-2.24-.41-3.88-1.24-4.93Z"/><path fill="#1A335E" d="M-90.54,45.04c-2.61,0-4.54-.76-5.78-2.27-1.24-1.52-1.86-3.89-1.86-7.12v-1.76c0-3.16.66-5.56,1.99-7.2,1.32-1.63,3.28-2.45,5.86-2.45s4.56.89,5.83,2.68c.07-1.1.22-1.81.46-2.12.24-.31.62-.46,1.13-.46.55,0,.94.17,1.16.52s.34.77.34,1.29v16.41c0,1.82-.04,3.31-.13,4.46-.09,1.15-.24,2.1-.46,2.84-.22.74-.54,1.4-.95,1.99-1.58,2.27-4.18,3.4-7.79,3.4s-5.88-.88-7.02-2.63c-.14-.24-.19-.52-.15-.82.07-.35.23-.62.49-.83.26-.21.56-.31.9-.31.14,0,.27.02.39.05s.27.14.44.31c1.31.93,2.87,1.39,4.69,1.39,1.38,0,2.48-.22,3.3-.67.83-.45,1.45-1.06,1.86-1.83.41-.77.7-1.66.85-2.66.16-1,.23-2.05.23-3.14v-1.5c-1.27,1.62-3.2,2.43-5.78,2.43ZM-85.3,30.41c-.26-.98-.73-1.75-1.42-2.32s-1.72-.85-3.09-.85c-1.69,0-2.92.55-3.72,1.65-.79,1.1-1.19,2.82-1.19,5.16v1.6c0,2.24.39,3.86,1.16,4.87.77,1.01,2,1.52,3.69,1.52s3.03-.51,3.84-1.55c.81-1.03,1.21-2.67,1.21-4.9l-.05-1.86c-.04-1.24-.18-2.35-.44-3.33Z"/><path fill="#1A335E" d="M-76.66,26.98c-.04-.17-.08-.35-.13-.54-.05-.19-.08-.35-.08-.49,0-.41.17-.77.52-1.08.34-.31.74-.46,1.19-.46.83,0,1.41.5,1.75,1.5l5.16,14.5,4.9-14.55c.34-.99.91-1.5,1.7-1.5.45,0,.83.15,1.16.46.33.31.49.67.49,1.08,0,.27-.09.62-.26,1.03l-7.89,21.41c-.34.89-.66,1.65-.95,2.27s-.58,1.13-.88,1.55c-.29.41-.63.79-1.01,1.13-.45.45-.99.81-1.63,1.11-.64.29-1.2.44-1.68.44-.38,0-.68-.13-.9-.39-.23-.26-.34-.59-.34-1,0-.38.08-.68.23-.9.16-.23.46-.42.9-.59.69-.31,1.29-.82,1.81-1.52s1-1.73,1.44-3.07l1.03-2.89-6.55-17.49Z"/><path fill="#1A335E" d="M-424.34,87.9l-2.27,6.19c-.34,1.03-.93,1.55-1.75,1.55-.45,0-.84-.16-1.19-.49s-.52-.71-.52-1.16c0-.17.02-.34.05-.51.03-.17.09-.36.16-.57l9.96-26.98c.28-.69.59-1.18.93-1.5s.79-.46,1.34-.46,1,.15,1.34.46c.34.31.64.79.88,1.45l10.01,26.98c.14.38.21.76.21,1.13,0,.45-.17.83-.52,1.16s-.76.49-1.24.49c-.79,0-1.39-.53-1.81-1.6l-2.22-6.14h-13.36ZM-417.63,69.13l-5.78,15.79h11.5l-5.73-15.79Z"/><path fill="#1A335E" d="M-395.4,75.47c1-.38,2.18-.57,3.56-.57,3.68,0,5.93,1.51,6.76,4.54.17.48.28,1.14.33,1.99.05.84.08,1.87.08,3.07v9.03c0,.65-.15,1.17-.44,1.55s-.71.57-1.26.57-.97-.19-1.27-.57-.44-.89-.44-1.55v-8.72c0-1.1-.04-2.05-.13-2.84-.09-.79-.23-1.39-.44-1.81-.62-1.51-1.88-2.27-3.77-2.27-.96,0-1.82.15-2.58.46-.76.31-1.33.76-1.7,1.34-.38.52-.64,1.19-.8,2.01-.15.82-.23,1.96-.23,3.4v8.41c0,.65-.15,1.17-.44,1.55-.29.38-.71.57-1.26.57s-.97-.19-1.26-.57c-.29-.38-.44-.89-.44-1.55v-16.92c0-.62.16-1.04.46-1.27.31-.22.7-.33,1.19-.33.34,0,.65.14.93.41.27.28.45.89.52,1.86.76-.83,1.63-1.43,2.63-1.81Z"/><path fill="#1A335E" d="M-365.73,64.79c0-.69.15-1.21.44-1.57s.71-.54,1.26-.54.97.18,1.27.54c.29.36.44.88.44,1.57v29.3c0,.55-.15.95-.46,1.19-.31.24-.71.36-1.19.36-.41,0-.72-.16-.93-.46-.21-.31-.36-1.01-.46-2.12-.83.93-1.71,1.6-2.66,2.01-.95.41-2.12.62-3.53.62-2.55,0-4.44-.78-5.67-2.35-1.24-1.57-1.86-3.96-1.86-7.2v-1.75c0-3.13.66-5.5,1.99-7.1,1.32-1.6,3.28-2.4,5.86-2.4s4.38.82,5.52,2.48v-12.59ZM-366.04,81.53c-.14-.67-.38-1.27-.72-1.78-.79-1.24-2.11-1.86-3.97-1.86-1.69,0-2.92.55-3.72,1.65s-1.19,2.82-1.19,5.16v1.6c0,2.24.39,3.86,1.16,4.88.77,1.01,2,1.52,3.69,1.52s2.99-.52,3.82-1.58c.83-1.05,1.24-2.67,1.24-4.87l-.05-1.86c-.04-1.24-.12-2.19-.26-2.86Z"/><path fill="#1A335E" d="M-347.31,77.51c-1-.81-1.69-1.68-2.09-2.6-.4-.93-.59-2.05-.59-3.35,0-2.48.73-4.37,2.19-5.67s3.59-1.96,6.37-1.96c1.21,0,2.33.15,3.38.44,1.05.29,1.9.66,2.55,1.11s.98.95.98,1.5c0,.45-.16.83-.47,1.14-.31.31-.69.46-1.13.46-.1,0-.2-.01-.28-.03s-.22-.07-.39-.15c-.17-.09-.41-.22-.72-.39-1.17-.69-2.44-1.03-3.82-1.03-1.65,0-2.91.38-3.79,1.14-.88.75-1.32,1.84-1.32,3.25,0,1.07.24,1.93.72,2.58.48.65,1.14,1.23,1.99,1.73s1.8,1.04,2.86,1.63c1.48.75,2.81,1.53,4,2.32s2.12,1.76,2.81,2.91c.69,1.15,1.03,2.66,1.03,4.52,0,2.85-.82,5.01-2.45,6.47-1.63,1.47-4.09,2.19-7.35,2.19-2.06,0-3.75-.27-5.06-.8-1.31-.53-2.32-1.33-3.04-2.4-.21-.34-.26-.7-.16-1.08.07-.31.24-.57.52-.8s.58-.34.93-.34c.21,0,.38.04.52.1.14.07.38.24.72.52,1.55,1.17,3.42,1.75,5.62,1.75,1.99,0,3.53-.47,4.62-1.42,1.08-.94,1.63-2.29,1.63-4.05,0-1.38-.34-2.48-1.01-3.3-.67-.82-1.51-1.51-2.53-2.06-1.02-.55-2.04-1.1-3.07-1.65-1.79-.96-3.18-1.85-4.18-2.66Z"/><path fill="#1A335E" d="M-326.7,77.2c1.43-1.53,3.59-2.29,6.47-2.29s5.1.76,6.53,2.29c1.43,1.53,2.14,3.83,2.14,6.89v2.42c0,3.1-.71,5.4-2.14,6.91-1.43,1.52-3.6,2.27-6.53,2.27s-5.05-.75-6.47-2.27c-1.43-1.51-2.14-3.82-2.14-6.91v-2.42c0-3.06.71-5.36,2.14-6.89ZM-316.25,79.47c-.82-1.05-2.15-1.57-3.97-1.57s-3.09.52-3.92,1.57c-.83,1.05-1.24,2.69-1.24,4.93l.05,1.8c.07,2.41.48,4.1,1.24,5.06.76.96,2.05,1.45,3.87,1.45s3.15-.52,3.97-1.55c.83-1.03,1.24-2.66,1.24-4.9v-1.86c0-2.24-.41-3.88-1.24-4.93Z"/><path fill="#1A335E" d="M-304.28,93.63c-.48-.75-.82-1.75-1.03-2.97-.21-1.22-.31-2.91-.31-5.08v-20.79c0-.69.15-1.21.44-1.57s.71-.54,1.27-.54.97.18,1.26.54.44.88.44,1.57v21.1c0,1.65.07,2.93.21,3.84.14.91.39,1.58.75,2.01.36.43.85.73,1.47.9.38.1.66.28.85.54.19.26.27.61.23,1.06,0,.41-.15.75-.44,1s-.66.39-1.11.39c-1.79,0-3.13-.67-4.02-2.01Z"/><path fill="#1A335E" d="M-287.78,95.69c-3.58,0-5.78-1.32-6.6-3.97-.14-.48-.24-1.08-.31-1.81-.07-.72-.1-1.62-.1-2.68v-10.16c0-.65.15-1.16.44-1.52s.71-.54,1.26-.54.97.18,1.27.54c.29.36.44.87.44,1.52v9.85c0,1.86.19,3.16.57,3.92.31.65.76,1.13,1.37,1.42.6.29,1.35.44,2.24.44,1.86,0,3.18-.5,3.97-1.5.34-.45.59-1.02.72-1.73s.21-1.66.21-2.86v-9.54c0-.65.15-1.16.44-1.52.29-.36.71-.54,1.26-.54s.98.18,1.29.54c.31.36.46.87.46,1.52v16.97c0,.62-.16,1.04-.49,1.26s-.75.34-1.26.34c-.34,0-.64-.13-.88-.39s-.4-.8-.46-1.63c-1.38,1.38-3.32,2.06-5.83,2.06Z"/><path fill="#1A335E" d="M-273.64,78.46c-.48,0-.88-.14-1.19-.41-.31-.27-.46-.63-.46-1.08s.15-.81.46-1.08c.31-.27.7-.41,1.19-.41h2.73l.21-4.95c.07-1.21.6-1.81,1.6-1.81.52,0,.91.16,1.19.49s.41.8.41,1.42v4.85h6.45c.58,0,1.03.13,1.34.39.31.26.46.63.46,1.11,0,.45-.16.81-.46,1.08-.31.28-.76.41-1.34.41h-6.45v9.7c0,1.69.2,2.84.59,3.48s1.13.95,2.19.95c.48,0,.97-.08,1.47-.23.5-.15,1.07-.39,1.73-.69.07-.03.14-.05.21-.05h.21c.41,0,.75.15,1.01.44.26.29.39.64.39,1.06,0,.45-.28.87-.83,1.26-.55.4-1.28.71-2.19.95-.91.24-1.9.36-2.97.36-2.06,0-3.49-.62-4.28-1.86-.35-.55-.59-1.28-.72-2.19-.14-.91-.21-2-.21-3.27v-9.91h-2.73Z"/><path fill="#1A335E" d="M-252.15,66.88c.36.43.54,1.04.54,1.83s-.18,1.36-.54,1.81c-.36.45-.87.67-1.52.67s-1.11-.22-1.47-.67c-.36-.45-.54-1.05-.54-1.81s.18-1.4.54-1.83c.36-.43.85-.64,1.47-.64.65,0,1.16.22,1.52.64ZM-255.38,77.07c0-.65.15-1.16.44-1.52.29-.36.71-.54,1.27-.54s.97.18,1.26.54.44.87.44,1.52v16.46c0,.65-.15,1.17-.44,1.55s-.71.57-1.26.57-.97-.19-1.27-.57c-.29-.38-.44-.89-.44-1.55v-16.46Z"/><path fill="#1A335E" d="M-243.74,77.2c1.43-1.53,3.59-2.29,6.47-2.29s5.1.76,6.53,2.29c1.43,1.53,2.14,3.83,2.14,6.89v2.42c0,3.1-.71,5.4-2.14,6.91-1.43,1.52-3.6,2.27-6.53,2.27s-5.05-.75-6.47-2.27c-1.43-1.51-2.14-3.82-2.14-6.91v-2.42c0-3.06.71-5.36,2.14-6.89ZM-233.29,79.47c-.82-1.05-2.15-1.57-3.97-1.57s-3.09.52-3.92,1.57c-.83,1.05-1.24,2.69-1.24,4.93l.05,1.8c.07,2.41.48,4.1,1.24,5.06.76.96,2.05,1.45,3.87,1.45s3.15-.52,3.97-1.55c.83-1.03,1.24-2.66,1.24-4.9v-1.86c0-2.24-.41-3.88-1.24-4.93Z"/><path fill="#1A335E" d="M-217.15,75.47c1-.38,2.18-.57,3.56-.57,3.68,0,5.93,1.51,6.76,4.54.17.48.28,1.14.33,1.99.05.84.08,1.87.08,3.07v9.03c0,.65-.15,1.17-.44,1.55s-.71.57-1.26.57-.97-.19-1.27-.57c-.29-.38-.44-.89-.44-1.55v-8.72c0-1.1-.04-2.05-.13-2.84-.09-.79-.23-1.39-.44-1.81-.62-1.51-1.88-2.27-3.77-2.27-.96,0-1.82.15-2.58.46-.76.31-1.33.76-1.7,1.34-.38.52-.64,1.19-.8,2.01-.15.82-.23,1.96-.23,3.4v8.41c0,.65-.15,1.17-.44,1.55s-.71.57-1.26.57-.97-.19-1.26-.57c-.29-.38-.44-.89-.44-1.55v-16.92c0-.62.16-1.04.46-1.27.31-.22.7-.33,1.19-.33.34,0,.65.14.93.41.27.28.45.89.52,1.86.76-.83,1.63-1.43,2.63-1.81Z"/><path fill="#1A335E" d="M-201,93.17c-.58-.76-.88-1.38-.88-1.86,0-.38.15-.72.44-1.03.29-.31.64-.46,1.06-.46.17,0,.34.04.49.13s.3.21.44.39c.72.82,1.55,1.45,2.48,1.88.93.43,1.94.64,3.04.64,2.79,0,4.18-1.03,4.18-3.09,0-.65-.12-1.19-.36-1.6-.24-.41-.7-.79-1.37-1.13-.67-.34-1.68-.72-3.02-1.13-1.38-.45-2.51-.88-3.4-1.29-.89-.41-1.57-.93-2.01-1.55-.45-.62-.67-1.46-.67-2.53,0-1.82.6-3.21,1.81-4.18,1.2-.96,2.91-1.44,5.11-1.44,2.61,0,4.5.72,5.67,2.17.28.38.41.76.41,1.13s-.15.73-.44,1.06c-.29.33-.63.49-1.01.49-.14,0-.26-.03-.36-.1-.1-.07-.29-.21-.57-.41-.65-.58-1.22-.97-1.7-1.16-.48-.19-1.15-.28-2.01-.28-1.13,0-2,.22-2.61.67-.6.45-.9,1.07-.9,1.86,0,.48.09.87.28,1.18.19.31.63.61,1.32.9.69.29,1.77.68,3.25,1.16,2.24.72,3.78,1.52,4.64,2.4.86.88,1.29,2.12,1.29,3.74,0,3.99-2.55,5.99-7.64,5.99-3.2,0-5.52-.84-6.96-2.53Z"/></g></svg>