<svg xmlns="http://www.w3.org/2000/svg" viewBox="759.3 735.8 223.7 71.8" role="img" aria-label="نبتون"><path fill-rule="nonzero" fill="#FFFFFF" fill-opacity="1" d="M 802.691406 753.773438 C 801.308594 753.773438 800.175781 753.265625 799.289062 752.257812 C 798.402344 751.246094 797.980469 750.171875 798.03125 749.035156 L 798.03125 748.59375 C 797.980469 747.363281 798.402344 746.253906 799.289062 745.265625 C 800.175781 744.277344 801.308594 743.785156 802.691406 743.785156 C 804.171875 743.785156 805.339844 744.277344 806.203125 745.265625 C 807.066406 746.253906 807.5 747.363281 807.5 748.59375 L 807.5 749.035156 C 807.5 750.171875 807.066406 751.246094 806.203125 752.257812 C 805.339844 753.265625 804.171875 753.773438 802.691406 753.773438 M 804.835938 799.558594 L 801.582031 799.558594 C 798.226562 799.558594 795.464844 798.894531 793.296875 797.5625 C 791.125 796.230469 789.511719 794.515625 788.453125 792.421875 C 787.390625 790.324219 786.863281 788.09375 786.863281 785.726562 L 786.863281 771.746094 C 786.863281 770.21875 787.328125 768.949219 788.265625 767.9375 C 789.203125 766.925781 790.3125 766.421875 791.59375 766.421875 C 792.925781 766.421875 794.046875 766.925781 794.960938 767.9375 C 795.871094 768.949219 796.328125 770.21875 796.328125 771.746094 L 796.328125 785.726562 C 796.328125 786.320312 796.414062 786.910156 796.589844 787.503906 C 796.761719 788.09375 797.042969 788.625 797.4375 789.09375 C 797.832031 789.5625 798.425781 789.945312 799.214844 790.238281 C 800.003906 790.535156 801.039062 790.683594 802.320312 790.683594 L 804.171875 790.683594 C 805.453125 790.683594 806.488281 790.535156 807.277344 790.238281 C 808.066406 789.945312 808.671875 789.5625 809.089844 789.09375 C 809.507812 788.625 809.792969 788.09375 809.941406 787.503906 C 810.089844 786.910156 810.160156 786.320312 810.160156 785.726562 L 810.160156 762.058594 C 810.160156 760.527344 810.628906 759.257812 811.566406 758.246094 C 812.503906 757.238281 813.589844 756.730469 814.820312 756.730469 C 816.152344 756.730469 817.289062 757.238281 818.226562 758.246094 C 819.160156 759.257812 819.632812 760.527344 819.632812 762.058594 L 819.632812 785.726562 C 819.632812 788.09375 819.101562 790.324219 818.039062 792.421875 C 816.980469 794.515625 815.363281 796.230469 813.195312 797.5625 C 811.023438 798.894531 808.238281 799.558594 804.835938 799.558594 "/><path fill-rule="nonzero" fill="#FFFFFF" fill-opacity="1" d="M 841.96875 777.738281 L 841.96875 770.269531 C 841.96875 769.035156 841.796875 768.074219 841.453125 767.382812 C 841.105469 766.691406 840.699219 766.226562 840.230469 765.976562 C 839.761719 765.730469 839.28125 765.609375 838.789062 765.609375 C 838.296875 765.609375 837.789062 765.730469 837.273438 765.976562 C 836.753906 766.226562 836.335938 766.691406 836.015625 767.382812 C 835.695312 768.074219 835.535156 769.035156 835.535156 770.269531 L 835.535156 773.078125 C 835.535156 774.363281 835.695312 775.347656 836.015625 776.039062 C 836.335938 776.726562 836.753906 777.183594 837.273438 777.40625 C 837.789062 777.628906 838.296875 777.738281 838.789062 777.738281 Z M 857.652344 786.613281 L 851.363281 786.613281 L 851.363281 787.207031 C 851.164062 789.425781 850.511719 791.472656 849.402344 793.347656 C 848.296875 795.222656 846.691406 796.722656 844.597656 797.859375 C 842.5 798.992188 839.875 799.558594 836.71875 799.558594 L 831.390625 799.558594 C 829.914062 799.558594 828.65625 799.140625 827.617188 798.304688 C 826.585938 797.464844 826.066406 796.402344 826.066406 795.121094 C 826.066406 793.839844 826.585938 792.777344 827.617188 791.941406 C 828.65625 791.101562 829.914062 790.683594 831.390625 790.683594 L 835.976562 790.683594 C 837.015625 790.683594 837.890625 790.585938 838.605469 790.386719 C 839.320312 790.191406 839.886719 789.917969 840.304688 789.574219 C 840.722656 789.230469 841.058594 788.847656 841.304688 788.429688 C 841.550781 788.007812 841.722656 787.578125 841.820312 787.132812 L 841.894531 786.613281 L 838.789062 786.613281 C 836.867188 786.613281 834.917969 786.171875 832.945312 785.28125 C 830.972656 784.394531 829.332031 782.980469 828.027344 781.03125 C 826.71875 779.082031 826.066406 776.480469 826.066406 773.226562 L 826.066406 770.121094 C 826.066406 766.863281 826.71875 764.253906 828.027344 762.277344 C 829.332031 760.308594 830.972656 758.890625 832.945312 758.023438 C 834.917969 757.164062 836.867188 756.730469 838.789062 756.730469 C 840.714844 756.730469 842.636719 757.164062 844.558594 758.023438 C 846.480469 758.890625 848.109375 760.308594 849.441406 762.277344 C 850.773438 764.253906 851.4375 766.863281 851.4375 770.121094 L 851.4375 777.738281 L 857.652344 777.738281 Z M 857.652344 786.613281 "/><path fill-rule="nonzero" fill="#FFFFFF" fill-opacity="1" d="M 872.816406 786.613281 L 856.765625 786.613281 L 856.765625 777.738281 L 872.816406 777.738281 Z M 872.816406 786.613281 "/><path fill-rule="nonzero" fill="#FFFFFF" fill-opacity="1" d="M 887.980469 786.613281 L 871.929688 786.613281 L 871.929688 777.738281 L 887.980469 777.738281 Z M 887.980469 786.613281 "/><path fill-rule="nonzero" fill="#FFFFFF" fill-opacity="1" d="M 903.144531 786.613281 L 887.09375 786.613281 L 887.09375 777.738281 L 903.144531 777.738281 Z M 903.144531 786.613281 "/><path fill-rule="nonzero" fill="#FFFFFF" fill-opacity="1" d="M 918.308594 786.613281 L 902.257812 786.613281 L 902.257812 777.738281 L 918.308594 777.738281 Z M 918.308594 786.613281 "/><path fill-rule="nonzero" fill="#FFFFFF" fill-opacity="1" d="M 933.027344 753.847656 C 931.84375 753.847656 930.859375 753.4375 930.070312 752.625 C 929.28125 751.8125 928.886719 750.8125 928.886719 749.628906 L 928.886719 749.035156 C 928.886719 747.804688 929.28125 746.78125 930.070312 745.96875 C 930.859375 745.152344 931.84375 744.746094 933.027344 744.746094 C 934.160156 744.746094 935.121094 745.152344 935.914062 745.96875 C 936.703125 746.78125 937.097656 747.804688 937.097656 749.035156 L 937.097656 749.628906 C 937.097656 750.8125 936.703125 751.8125 935.914062 752.625 C 935.121094 753.4375 934.160156 753.847656 933.027344 753.847656 M 923.484375 753.847656 C 922.351562 753.847656 921.390625 753.4375 920.601562 752.625 C 919.8125 751.8125 919.417969 750.8125 919.417969 749.628906 L 919.417969 749.035156 C 919.417969 747.804688 919.8125 746.78125 920.601562 745.96875 C 921.390625 745.152344 922.351562 744.746094 923.484375 744.746094 C 924.667969 744.746094 925.65625 745.152344 926.445312 745.96875 C 927.234375 746.78125 927.628906 747.804688 927.628906 749.035156 L 927.628906 749.628906 C 927.628906 750.8125 927.234375 751.8125 926.445312 752.625 C 925.65625 753.4375 924.667969 753.847656 923.484375 753.847656 M 939.242188 777.738281 L 939.242188 786.613281 L 938.207031 786.613281 C 936.035156 786.613281 934.136719 786.332031 932.511719 785.765625 C 930.882812 785.199219 929.476562 784.394531 928.292969 783.359375 C 927.160156 784.394531 925.753906 785.199219 924.078125 785.765625 C 922.398438 786.332031 920.527344 786.613281 918.457031 786.613281 L 917.421875 786.613281 L 917.421875 777.738281 L 917.714844 777.738281 C 920.035156 777.738281 921.585938 777.269531 922.378906 776.332031 C 923.164062 775.398438 923.558594 774.214844 923.558594 772.78125 L 923.558594 762.058594 C 923.558594 760.527344 924.027344 759.257812 924.964844 758.246094 C 925.902344 757.238281 927.011719 756.730469 928.292969 756.730469 C 929.625 756.730469 930.746094 757.238281 931.660156 758.246094 C 932.570312 759.257812 933.027344 760.527344 933.027344 762.058594 L 933.027344 772.78125 C 933.027344 774.214844 933.421875 775.398438 934.210938 776.332031 C 935 777.269531 936.578125 777.738281 938.945312 777.738281 Z M 939.242188 777.738281 "/><path fill-rule="nonzero" fill="#FFFFFF" fill-opacity="1" d="M 949.226562 789.351562 C 950.707031 789.351562 951.890625 789.84375 952.777344 790.832031 C 953.664062 791.816406 954.085938 792.925781 954.035156 794.160156 L 954.035156 794.53125 C 954.085938 795.714844 953.664062 796.8125 952.777344 797.820312 C 951.890625 798.832031 950.707031 799.339844 949.226562 799.339844 C 947.847656 799.339844 946.714844 798.832031 945.824219 797.820312 C 944.9375 796.8125 944.519531 795.714844 944.566406 794.53125 L 944.566406 794.160156 C 944.519531 792.925781 944.9375 791.816406 945.824219 790.832031 C 946.714844 789.84375 947.847656 789.351562 949.226562 789.351562 M 960.175781 777.738281 L 960.175781 786.613281 L 959.140625 786.613281 C 956.96875 786.613281 955.070312 786.332031 953.441406 785.765625 C 951.816406 785.199219 950.410156 784.421875 949.226562 783.433594 C 948.09375 784.421875 946.6875 785.199219 945.011719 785.765625 C 943.335938 786.332031 941.460938 786.613281 939.390625 786.613281 L 938.355469 786.613281 L 938.355469 777.738281 L 938.648438 777.738281 C 940.96875 777.738281 942.519531 777.269531 943.308594 776.332031 C 944.097656 775.398438 944.492188 774.214844 944.492188 772.78125 L 944.492188 762.058594 C 944.492188 760.527344 944.960938 759.257812 945.898438 758.246094 C 946.835938 757.238281 947.945312 756.730469 949.226562 756.730469 C 950.558594 756.730469 951.679688 757.238281 952.59375 758.246094 C 953.507812 759.257812 953.960938 760.527344 953.960938 762.058594 L 953.960938 772.78125 C 953.960938 774.214844 954.355469 775.398438 955.144531 776.332031 C 955.933594 777.269531 957.511719 777.738281 959.878906 777.738281 Z M 960.175781 777.738281 "/><path fill-rule="nonzero" fill="#FFFFFF" fill-opacity="1" d="M 970.160156 753.847656 C 968.78125 753.847656 967.648438 753.339844 966.757812 752.328125 C 965.871094 751.320312 965.453125 750.246094 965.5 749.113281 L 965.5 748.667969 C 965.453125 747.4375 965.871094 746.324219 966.757812 745.339844 C 967.648438 744.351562 968.78125 743.859375 970.160156 743.859375 C 971.640625 743.859375 972.824219 744.351562 973.714844 745.339844 C 974.601562 746.324219 975.019531 747.4375 974.96875 748.667969 L 974.96875 749.113281 C 975.019531 750.246094 974.601562 751.320312 973.714844 752.328125 C 972.824219 753.339844 971.640625 753.847656 970.160156 753.847656 M 959.289062 786.613281 L 959.289062 777.738281 L 959.582031 777.738281 C 961.902344 777.738281 963.453125 777.269531 964.242188 776.332031 C 965.03125 775.398438 965.425781 774.214844 965.425781 772.78125 L 965.425781 762.058594 C 965.425781 760.527344 965.894531 759.257812 966.832031 758.246094 C 967.769531 757.238281 968.878906 756.730469 970.160156 756.730469 C 971.492188 756.730469 972.613281 757.238281 973.527344 758.246094 C 974.441406 759.257812 974.894531 760.527344 974.894531 762.058594 L 974.894531 772.78125 C 974.894531 775.25 974.367188 777.527344 973.304688 779.625 C 972.246094 781.722656 970.628906 783.410156 968.460938 784.691406 C 966.289062 785.976562 963.578125 786.613281 960.324219 786.613281 Z M 959.289062 786.613281 "/><path fill-rule="nonzero" fill="rgb(91.799927%, 30.599976%, 30.599976%)" fill-opacity="1" d="M 770.152344 786.238281 C 769.289062 785.742188 768.601562 785.070312 768.097656 784.226562 C 767.589844 783.382812 767.335938 782.449219 767.335938 781.429688 C 767.335938 780.386719 767.589844 779.441406 768.097656 778.597656 C 768.601562 777.75 769.28125 777.082031 770.132812 776.585938 C 770.984375 776.089844 771.933594 775.839844 772.972656 775.839844 C 774.007812 775.839844 774.960938 776.089844 775.828125 776.585938 C 776.691406 777.082031 777.378906 777.75 777.886719 778.597656 C 778.390625 779.441406 778.644531 780.386719 778.644531 781.429688 C 778.644531 782.449219 778.390625 783.382812 777.886719 784.226562 C 777.378906 785.070312 776.691406 785.742188 775.828125 786.238281 C 774.960938 786.734375 774.007812 786.980469 772.972656 786.980469 C 771.957031 786.980469 771.019531 786.734375 770.152344 786.238281 "/></svg>