<svg xmlns="http://www.w3.org/2000/svg" viewBox="-6.0 -6.0 436.6 114.5" role="img" aria-label="Neptune."><g transform="translate(869 0)"><path fill="#1A335E" d="M-827,9.9c0-3.17.69-5.62,2.07-7.33,1.38-1.71,3.36-2.57,5.95-2.57s4.47.86,5.89,2.57c1.42,1.71,2.13,4.16,2.13,7.33v56.39c0,2.93-.69,5.49-2.07,7.71-1.38,2.21-3.7,3.32-6.95,3.32-1.84,0-3.45-.48-4.83-1.44-1.38-.96-2.74-2.57-4.07-4.82l-24.06-40.85v37.34c0,3.18-.69,5.62-2.07,7.33-1.38,1.71-3.36,2.57-5.95,2.57s-4.47-.86-5.89-2.57c-1.42-1.71-2.13-4.16-2.13-7.33V12.16c0-3.26.75-6.08,2.26-8.46s4.01-3.57,7.52-3.57c2.09,0,3.86.52,5.33,1.57,1.46,1.04,2.9,2.78,4.32,5.2l22.56,38.35V9.9Z"/><path fill="#1A335E" d="M-782.89,57.15c0,2.26.9,3.97,2.69,5.14,1.8,1.17,4.36,1.75,7.71,1.75,2.26,0,4.55-.19,6.89-.56,2.34-.38,4.22-.81,5.64-1.32.67-.17,1.25-.25,1.75-.25,1.67,0,3.11.63,4.32,1.88,1.21,1.25,1.82,2.8,1.82,4.64,0,.92-.21,1.84-.63,2.76-.42.92-1,1.63-1.76,2.13-1.5,1.25-4.01,2.26-7.52,3.01-3.51.75-7.35,1.13-11.53,1.13-8.27,0-14.64-2-19.11-6.02-4.47-4.01-6.7-9.69-6.7-17.04v-4.51c0-8.1,2.13-14.31,6.39-18.61,4.26-4.3,10.36-6.45,18.3-6.45,8.35,0,14.45,2.42,18.3,7.27,1.34,1.67,2.49,3.97,3.45,6.89.96,2.92,1.44,5.72,1.44,8.4,0,3.34-1.13,5.66-3.38,6.96-2.25,1.3-4.81,1.94-7.64,1.94h-20.43v.88ZM-768.85,38.72c-1.25-1.34-3.13-2-5.64-2-2.76,0-4.81.69-6.14,2.07-1.34,1.38-2.17,3.66-2.51,6.83h16.79c-.42-3.26-1.25-5.55-2.51-6.89Z"/><path fill="#1A335E" d="M-713.08,24.81c6.35,0,11.22,2.07,14.6,6.2,3.38,4.14,5.08,10.09,5.08,17.86v4.26c0,7.77-1.73,13.77-5.2,17.98-3.47,4.22-8.33,6.33-14.6,6.33-2.51,0-4.79-.31-6.83-.94-2.05-.63-3.82-1.52-5.33-2.7v18.55c0,3.26-.71,5.76-2.13,7.52-1.42,1.75-3.43,2.63-6.02,2.63s-4.72-.88-6.14-2.63c-1.42-1.75-2.13-4.26-2.13-7.52V31.71c0-4.59,2.51-6.89,7.52-6.89,1.75,0,3.2.4,4.32,1.19,1.13.8,1.94,2.24,2.44,4.32,3.42-3.68,8.23-5.51,14.41-5.51ZM-723.48,60.72c1.08,1.55,3.01,2.32,5.76,2.32s4.61-.83,5.83-2.51c1.21-1.67,1.82-4.39,1.82-8.14v-2.51c0-3.84-.56-6.58-1.69-8.21s-3.03-2.44-5.7-2.44-4.76.84-6.02,2.51c-1.25,1.67-1.88,4.39-1.88,8.14l.13,2.51c.08,4.01.67,6.79,1.76,8.33Z"/><path fill="#1A335E" d="M-682.63,40.73c-2.17,0-3.99-.69-5.45-2.07-1.46-1.38-2.19-3.11-2.19-5.2s.73-3.82,2.19-5.2c1.46-1.38,3.28-2.07,5.45-2.07h2l.63-8.02c.58-5.93,3.26-8.9,8.02-8.9,2.42,0,4.32.84,5.7,2.51,1.38,1.67,2.07,4.01,2.07,7.02v7.39h8.9c2.84,0,5.03.63,6.58,1.88s2.32,3.05,2.32,5.39-.77,4.03-2.32,5.33c-1.55,1.3-3.74,1.94-6.58,1.94h-8.9v12.03c0,3.59.44,6.04,1.32,7.33.88,1.3,2.44,1.94,4.7,1.94.83,0,1.55-.04,2.13-.13.58-.08,1.67-.29,3.26-.63h.88c2,0,3.65.75,4.95,2.25,1.29,1.5,1.94,3.22,1.94,5.14s-.67,3.53-2,4.83c-1.34,1.3-3.38,2.28-6.14,2.94-2.76.67-6.23,1-10.4,1-7.19,0-12.07-2.3-14.66-6.89-.84-1.5-1.46-3.61-1.88-6.33-.42-2.71-.63-6.03-.63-9.96v-13.53h-1.88Z"/><path fill="#1A335E" d="M-620.85,77.45c-9.61,0-15.58-3.68-17.92-11.03-.34-1.5-.61-3.28-.81-5.33-.21-2.05-.31-4.74-.31-8.08v-18.17c0-3.17.71-5.64,2.13-7.39s3.47-2.63,6.14-2.63,4.59.88,6.02,2.63c1.42,1.75,2.13,4.22,2.13,7.39v16.92c0,3.93.33,6.69,1,8.27.42,1.09,1.04,1.86,1.88,2.32.83.46,1.88.69,3.13.69,2.84,0,4.8-1,5.89-3.01.58-1,1-2.36,1.25-4.07.25-1.71.38-3.82.38-6.33v-14.79c0-3.17.71-5.64,2.13-7.39,1.42-1.75,3.42-2.63,6.02-2.63s4.72.88,6.14,2.63c1.42,1.75,2.13,4.22,2.13,7.39v35.72c0,2.93-.81,4.81-2.45,5.64-1.63.83-3.66,1.25-6.08,1.25-1.25,0-2.44-.27-3.57-.81-1.13-.54-1.78-1.52-1.94-2.95-4.01,2.51-8.44,3.76-13.28,3.76Z"/><path fill="#1A335E" d="M-560.57,25.69c2.17-.58,4.76-.88,7.77-.88,9.27,0,15.08,3.76,17.42,11.28.5,1.42.85,3.22,1.06,5.39.21,2.17.31,4.93.31,8.27v17.54c0,3.26-.73,5.76-2.19,7.52-1.46,1.75-3.49,2.63-6.08,2.63s-4.62-.88-6.08-2.63c-1.46-1.75-2.19-4.26-2.19-7.52v-16.29c0-2.09-.06-3.84-.19-5.26-.13-1.42-.4-2.55-.81-3.38-.84-2.09-2.63-3.13-5.39-3.13-1.5,0-2.78.23-3.82.69-1.05.46-1.86,1.23-2.44,2.32-.67,1-1.15,2.38-1.44,4.14-.29,1.75-.44,4.01-.44,6.77v14.16c0,3.26-.71,5.76-2.13,7.52-1.42,1.75-3.43,2.63-6.02,2.63s-4.72-.88-6.14-2.63c-1.42-1.75-2.13-4.26-2.13-7.52V31.71c0-3.01.75-4.91,2.26-5.7,1.5-.79,3.46-1.19,5.89-1.19,1.34,0,2.61.27,3.82.81,1.21.54,1.94,1.57,2.19,3.07,2.34-1.42,4.59-2.42,6.77-3.01Z"/><path fill="#1A335E" d="M-508.06,57.15c0,2.26.9,3.97,2.69,5.14,1.8,1.17,4.36,1.75,7.71,1.75,2.26,0,4.55-.19,6.89-.56,2.34-.38,4.22-.81,5.64-1.32.67-.17,1.25-.25,1.75-.25,1.67,0,3.11.63,4.32,1.88,1.21,1.25,1.82,2.8,1.82,4.64,0,.92-.21,1.84-.63,2.76-.42.92-1,1.63-1.76,2.13-1.5,1.25-4.01,2.26-7.52,3.01-3.51.75-7.35,1.13-11.53,1.13-8.27,0-14.64-2-19.11-6.02-4.47-4.01-6.7-9.69-6.7-17.04v-4.51c0-8.1,2.13-14.31,6.39-18.61,4.26-4.3,10.36-6.45,18.3-6.45,8.35,0,14.45,2.42,18.3,7.27,1.34,1.67,2.49,3.97,3.45,6.89.96,2.92,1.44,5.72,1.44,8.4,0,3.34-1.13,5.66-3.38,6.96-2.25,1.3-4.81,1.94-7.64,1.94h-20.43v.88ZM-494.03,38.72c-1.25-1.34-3.13-2-5.64-2-2.76,0-4.81.69-6.14,2.07-1.34,1.38-2.17,3.66-2.51,6.83h16.79c-.42-3.26-1.25-5.55-2.51-6.89Z"/><path fill="#EA4E4E" d="M-458.74,76.09c-1.47-.84-2.63-1.98-3.49-3.41-.86-1.43-1.29-3.01-1.29-4.74s.43-3.37,1.29-4.8c.86-1.43,2.01-2.57,3.45-3.41,1.44-.84,3.05-1.26,4.81-1.26s3.37.42,4.84,1.26c1.47.84,2.63,1.98,3.49,3.41.86,1.43,1.29,3.03,1.29,4.8s-.43,3.3-1.29,4.74c-.86,1.43-2.02,2.57-3.49,3.41-1.47.84-3.08,1.26-4.84,1.26s-3.31-.42-4.77-1.26Z"/></g></svg>